<svg xmlns="http://www.w3.org/2000/svg" width="23.725" height="22.059" viewBox="0 0 23.725 22.059">
  <path id="Контур_12" data-name="Контур 12" d="M1195.794,5082.733c-.346-3.812-3.044-6.578-6.421-6.578a6.384,6.384,0,0,0-5.468,3.151,6.151,6.151,0,0,0-5.337-3.151c-3.376,0-6.075,2.765-6.421,6.577a6.809,6.809,0,0,0,.2,2.5,10.72,10.72,0,0,0,3.285,5.481l8.266,7.5,8.407-7.5a10.721,10.721,0,0,0,3.285-5.481A6.8,6.8,0,0,0,1195.794,5082.733Z" transform="translate(-1172.108 -5076.155)" fill="#fff"/>
</svg>
