<svg id="curtains" xmlns="http://www.w3.org/2000/svg" width="30.951" height="30.951" viewBox="0 0 30.951 30.951">
  <g id="Сгруппировать_207" data-name="Сгруппировать 207">
    <path id="Контур_32" data-name="Контур 32" d="M30.306,29.661h-.645V17.41h.645a.645.645,0,0,0,0-1.29h-.645V14.842c0-.008,0-.016,0-.023V8.382A7.1,7.1,0,0,0,22.568,1.29H19.821A2.9,2.9,0,0,0,15.475.741a2.9,2.9,0,0,0-4.346.548H8.382A7.1,7.1,0,0,0,1.29,8.382v6.437q0,.012,0,.023V16.12H.645a.645.645,0,1,0,0,1.29H1.29V29.661H.645a.645.645,0,0,0,0,1.29H12.9a.645.645,0,0,0,0-1.29H10.757L6.165,17.926a3.278,3.278,0,0,0-.623-1.007A13.538,13.538,0,0,0,10.5,14.356a13.606,13.606,0,0,0,4.44-6.714,1.556,1.556,0,0,0,1.068,0,13.606,13.606,0,0,0,4.44,6.714,13.539,13.539,0,0,0,4.959,2.563,3.276,3.276,0,0,0-.623,1.007L20.194,29.661H18.055a.645.645,0,0,0,0,1.29H30.306a.645.645,0,0,0,0-1.29Zm-20.934,0H2.579V17.394q.658-.032,1.307-.127A.647.647,0,0,0,4,17.342,1.983,1.983,0,0,1,4.964,18.4ZM2.579,16.1v-.847A12.663,12.663,0,0,0,7.248,11.6a14,14,0,0,0,2.769-6.013.645.645,0,1,0-1.265-.25,12.227,12.227,0,0,1-6.173,8.486V8.382a5.81,5.81,0,0,1,5.8-5.8h2.275a2.91,2.91,0,0,0-.018.322,2.7,2.7,0,0,0,.975,2.082l2.211,1.843A12.318,12.318,0,0,1,2.579,16.1ZM16,6.081l-.019.016-.353.294a.252.252,0,0,1-.315,0L14.965,6.1l-.019-.016L12.44,3.993A1.417,1.417,0,0,1,11.929,2.9a1.612,1.612,0,0,1,2.994-.83.645.645,0,0,0,1.1,0,1.612,1.612,0,0,1,2.994.83,1.416,1.416,0,0,1-.511,1.091Zm12.367,23.58H21.578L25.987,18.4a1.983,1.983,0,0,1,.962-1.054.652.652,0,0,0,.116-.074q.648.095,1.307.127Zm0-15.838A12.227,12.227,0,0,1,22.2,5.338a.645.645,0,1,0-1.265.25A14,14,0,0,0,23.7,11.6a12.664,12.664,0,0,0,4.669,3.655V16.1A12.318,12.318,0,0,1,17.125,6.826l2.211-1.843A2.7,2.7,0,0,0,20.311,2.9a2.925,2.925,0,0,0-.018-.322h2.275a5.81,5.81,0,0,1,5.8,5.8Z" fill="#222a3a"/>
  </g>
</svg>
