<svg xmlns="http://www.w3.org/2000/svg" width="35.271" height="35.271" viewBox="0 0 35.271 35.271">
  <g id="glasses" transform="translate(0.1 0.1)">
    <g id="Сгруппировать_220" data-name="Сгруппировать 220" transform="translate(0)">
      <path id="Контур_39" data-name="Контур 39" d="M34.495,0H23.7a2.9,2.9,0,0,0-2.832,2.312H15.225a.578.578,0,0,0-.578.578v.636a2.9,2.9,0,0,0-2.312,2.832v4.432H9.059a.578.578,0,0,0-.578.578,4.438,4.438,0,0,0,3.854,4.393V18.5H4.819a.578.578,0,0,0-.578.578A4.438,4.438,0,0,0,8.1,23.47v2.737H.58A.578.578,0,0,0,0,26.785a4.438,4.438,0,0,0,3.854,4.393v2.737H2.892a.578.578,0,1,0,0,1.156H5.975a.578.578,0,1,0,0-1.156H5.012V31.179a4.443,4.443,0,0,0,3.661-3.1,4.444,4.444,0,0,0,3.661,3.1v2.737h-.964a.578.578,0,1,0,0,1.156h3.083a.578.578,0,1,0,0-1.156h-.964V31.179a4.444,4.444,0,0,0,3.661-3.1,4.443,4.443,0,0,0,3.661,3.1v2.737H19.85a.578.578,0,1,0,0,1.156h3.083a.578.578,0,1,0,0-1.156h-.964V31.179a4.438,4.438,0,0,0,3.854-4.393.578.578,0,0,0-.578-.578H17.73V23.47a4.438,4.438,0,0,0,3.854-4.393.578.578,0,0,0-.578-.578H13.491V15.762a4.438,4.438,0,0,0,3.854-4.393.578.578,0,0,0-.578-.578H13.491V6.359h0a1.737,1.737,0,0,1,1.156-1.634V5.2a.578.578,0,0,0,.578.578h5.647A2.9,2.9,0,0,0,23.7,8.093h6.937a.579.579,0,0,0,.579-.578s0-.008,0-.012V1.156h2.7V6.937h-.963a.578.578,0,0,0,0,1.156h1.541a.578.578,0,0,0,.578-.578V.578A.578.578,0,0,0,34.495,0ZM4.434,30.061a3.281,3.281,0,0,1-3.224-2.7H7.658A3.281,3.281,0,0,1,4.434,30.061Zm20.181-2.7a3.275,3.275,0,0,1-6.448,0ZM8.673,22.353a3.281,3.281,0,0,1-3.224-2.7H11.9A3.281,3.281,0,0,1,8.673,22.353Zm4.239,7.708a3.281,3.281,0,0,1-3.224-2.7h6.448A3.281,3.281,0,0,1,12.913,30.061Zm7.463-10.406a3.275,3.275,0,0,1-6.448,0Zm-3.8,3.815v2.737H9.251V23.47a4.443,4.443,0,0,0,3.661-3.1A4.443,4.443,0,0,0,16.574,23.47Zm-.438-11.523a3.275,3.275,0,0,1-6.448,0Zm.823-7.323H15.8V4.051s0,0,0,0,0,0,0,0V3.469h1.156Zm7.708,2.312H23.7A1.736,1.736,0,0,1,21.97,5.2a.578.578,0,0,0-.578-.578H18.115V3.469h3.276a.578.578,0,0,0,.578-.578A1.736,1.736,0,0,1,23.7,1.156h.963Zm5.4,0H25.823V1.156h4.239Z" transform="translate(-0.002)" fill="#222a3a" stroke="#222a3a" stroke-width="0.2"/>
    </g>
  </g>
</svg>
