<svg id="microphone" xmlns="http://www.w3.org/2000/svg" width="31.611" height="31.611" viewBox="0 0 31.611 31.611">
  <g id="Сгруппировать_222" data-name="Сгруппировать 222" transform="translate(0 0)">
    <g id="Сгруппировать_221" data-name="Сгруппировать 221">
      <path id="Контур_40" data-name="Контур 40" d="M29.4,2.377a7.844,7.844,0,0,0-10.685-.526L18.6,1.733a.659.659,0,0,0-.931.931l.118.118a7.8,7.8,0,0,0-1.847,4.8l-.078,0a1.459,1.459,0,0,0-1.057.545L2.262,23.808a1.455,1.455,0,0,0,.107,1.94.224.224,0,0,1,0,.316,2.174,2.174,0,0,0-.356,2.6L.194,30.487a.659.659,0,1,0,.931.931L2.943,29.6a2.175,2.175,0,0,0,2.616-.348.224.224,0,0,1,.316,0,1.455,1.455,0,0,0,1.94.107L23.494,16.817a1.458,1.458,0,0,0,.544-1.057c0-.026,0-.052,0-.078a7.816,7.816,0,0,0,4.8-1.846l.118.118a.659.659,0,1,0,.931-.931l-.118-.118A7.873,7.873,0,0,0,29.4,2.377ZM22.671,15.789,6.992,28.332a.14.14,0,0,1-.186-.01,1.542,1.542,0,0,0-2.179,0,.855.855,0,0,1-1.208,0l-.061-.061,0,0,0,0L3.3,28.2A.854.854,0,0,1,3.3,27a1.542,1.542,0,0,0,0-2.179.14.14,0,0,1-.01-.186L15.834,8.951a.14.14,0,0,1,.208-.011l1.273,1.273-2.648,3.31A2.442,2.442,0,0,0,18.1,16.956l3.31-2.648,1.273,1.273a.14.14,0,0,1-.011.208Zm-4.015-5.144a.136.136,0,0,1,.1-.052h.008a.135.135,0,0,1,.1.041l2.125,2.125a.14.14,0,0,1-.012.208l-3.7,2.961a1.125,1.125,0,0,1-1.582-1.582Zm4.661,3.708L22.275,13.31a1.456,1.456,0,0,0-.354-1.483L19.8,9.7a1.457,1.457,0,0,0-1.483-.354L17.27,8.305a6.5,6.5,0,0,1,1.452-4.587L27.9,12.9A6.508,6.508,0,0,1,23.317,14.352Zm6.977-6.414a6.489,6.489,0,0,1-1.458,4.03L19.653,2.786A6.516,6.516,0,0,1,30.294,7.939Z" transform="translate(-0.001 0)" fill="#222a3a"/>
      <path id="Контур_41" data-name="Контур 41" d="M266.011,188.118a.657.657,0,0,0,.466-.193l.564-.564a.659.659,0,0,0-.931-.931l-.564.564a.659.659,0,0,0,.466,1.124Z" transform="translate(-247.877 -173.971)" fill="#222a3a"/>
    </g>
  </g>
</svg>
