<svg xmlns="http://www.w3.org/2000/svg" width="34.4" height="31.634" viewBox="0 0 34.4 31.634">
  <path id="serving-dish" d="M32.454,15.911H31.277a14.213,14.213,0,0,0-1.3-5.14.5.5,0,1,0-.9.418,13.23,13.23,0,0,1,1.206,4.722H7.568a.5.5,0,0,0,0,.992H32.454a.455.455,0,0,1,.455.455v.605a.455.455,0,0,1-.455.455H1.447a.455.455,0,0,1-.455-.455v-.605a.455.455,0,0,1,.455-.455h3.81a.5.5,0,1,0,0-.992H3.618A13.363,13.363,0,0,1,16.058,3.477h.005q.2-.013.4-.02l.079,0,.14,0c.089,0,.178,0,.267,0,.118,0,.237,0,.355.005l.1,0c.091,0,.182.008.273.013l.145.008a13.373,13.373,0,0,1,10.148,5.78.5.5,0,0,0,.818-.562A14.366,14.366,0,0,0,18.983,2.6a2.414,2.414,0,0,0,.386-1.309c0-.27-.12-.766-.926-1.063a4.971,4.971,0,0,0-2.987,0c-.805.3-.925.793-.925,1.063A2.417,2.417,0,0,0,14.916,2.6,14.359,14.359,0,0,0,2.624,15.911H1.447A1.449,1.449,0,0,0,0,17.358v.605A1.448,1.448,0,0,0,1.447,19.41H6.789a6.145,6.145,0,0,0-.761.615l-.01.009a.449.449,0,0,0-.043.046L3.621,22.939a1.367,1.367,0,0,0-1.866.387L.828,24.691a1.372,1.372,0,0,0,.364,1.9l6.336,4.3a1.361,1.361,0,0,0,.767.237,1.392,1.392,0,0,0,.26-.025,1.36,1.36,0,0,0,.876-.577l.926-1.365a1.372,1.372,0,0,0-.364-1.9l-.036-.025a3.206,3.206,0,0,1,1.668-1.007,10.9,10.9,0,0,1,4.009.067,9.473,9.473,0,0,0,4.042-.218l1.826-.5A9.4,9.4,0,0,0,24.831,23.9l.022-.018L27.988,21.1a1.53,1.53,0,0,0,.466-1.691h4A1.448,1.448,0,0,0,33.9,17.963v-.605a1.448,1.448,0,0,0-1.447-1.447ZM16.951.992a2.323,2.323,0,0,1,1.427.321,1.428,1.428,0,0,1-.632,1.165l-.29-.013-.1,0c-.138,0-.275-.006-.409-.006-.095,0-.192,0-.289,0l-.142,0-.17.006-.194.009a1.427,1.427,0,0,1-.632-1.164A2.323,2.323,0,0,1,16.951.992Zm3.556,18.657a1.636,1.636,0,0,0-.131-.239h4.757l-2.057,1.361-2.932.848-.1,0A1.687,1.687,0,0,0,20.507,19.649Zm-5.378-.239-.716.149-.553-.149Zm-5.593,9.2-.926,1.365a.378.378,0,0,1-.525.1l-6.336-4.3a.378.378,0,0,1-.1-.525l.926-1.366a.377.377,0,0,1,.525-.1l.342.232h0l5.993,4.072a.378.378,0,0,1,.1.525Zm17.843-8.293a.436.436,0,0,0-.034.028l-3.138,2.78a8.416,8.416,0,0,1-2.967,1.5l-1.826.5a8.467,8.467,0,0,1-3.616.2,11.807,11.807,0,0,0-4.4-.055,4.212,4.212,0,0,0-2.269,1.413L4.446,23.5l2.275-2.763a4.669,4.669,0,0,1,3-1.324h.02a3.738,3.738,0,0,1,1.03.192l.219.06,3.284.886a.5.5,0,0,0,.23.006l4.3-.9a.739.739,0,0,1,.562.109.666.666,0,0,1,.236.282.694.694,0,0,1-.321.9l-1.467.777a.5.5,0,0,0,.243.934l2.176-.047a.5.5,0,0,0,.127-.019l3.067-.887a.5.5,0,0,0,.136-.063l3.094-2.048c.26-.16.605-.292.789-.021a.59.59,0,0,1-.064.746Zm0,0" transform="translate(0.25 0.25)" fill="#222a3a" stroke="#222a3a" stroke-width="0.5"/>
</svg>
