<svg id="wedding" xmlns="http://www.w3.org/2000/svg" width="40.133" height="29.782" viewBox="0 0 40.133 29.782">
  <g id="Сгруппировать_211" data-name="Сгруппировать 211" transform="translate(17.267 0)">
    <g id="Сгруппировать_210" data-name="Сгруппировать 210">
      <path id="Контур_34" data-name="Контур 34" d="M279.261,101.287a16.6,16.6,0,0,1-3.01-.537,1.833,1.833,0,0,0-1.3,3.128l1.714,1.714a.62.62,0,0,0,.878,0l1.714-1.714A1.835,1.835,0,0,0,279.261,101.287ZM278.383,103l-1.275,1.275L275.833,103a.591.591,0,1,1,.837-.836.621.621,0,0,0,.439.182h0a.62.62,0,0,0,.439-.182.591.591,0,0,1,.836.836Z" transform="translate(-274.419 -100.75)" fill="#222a3a"/>
    </g>
  </g>
  <g id="Сгруппировать_213" data-name="Сгруппировать 213" transform="translate(0 14.474)">
    <g id="Сгруппировать_212" data-name="Сгруппировать 212">
      <path id="Контур_35" data-name="Контур 35" d="M36.953,317.273H4.681a3.935,3.935,0,0,0-3.93,3.93v7.448a.621.621,0,0,0,.621.621H3.234v2.689a.621.621,0,0,0,.621.621H11.3a.621.621,0,0,0,.621-.621v-2.689H29.713v2.689a.621.621,0,0,0,.621.621H37.78a.621.621,0,0,0,.621-.621v-2.689h1.862a.621.621,0,0,0,.621-.621V321.2A3.935,3.935,0,0,0,36.953,317.273ZM1.992,321.2a2.692,2.692,0,0,1,2.689-2.689H36.953a2.692,2.692,0,0,1,2.689,2.689v4.345H1.992ZM4.475,331.34v-2.069h6.206v2.069Zm32.685,0H30.954v-2.069H37.16v2.069Zm2.482-3.31H1.992v-1.241h37.65v1.241Z" transform="translate(-0.751 -317.273)" fill="#222a3a"/>
    </g>
  </g>
  <g id="Сгруппировать_215" data-name="Сгруппировать 215" transform="translate(5.793 10.336)">
    <g id="Сгруппировать_214" data-name="Сгруппировать 214">
      <path id="Контур_36" data-name="Контур 36" d="M85.813,264.647h-9.1a2.278,2.278,0,0,0-2.276,2.276.621.621,0,1,0,1.241,0,1.035,1.035,0,0,1,1.034-1.034h9.1a1.035,1.035,0,0,1,1.034,1.034.621.621,0,1,0,1.241,0A2.278,2.278,0,0,0,85.813,264.647Z" transform="translate(-74.435 -264.647)" fill="#222a3a"/>
    </g>
  </g>
  <g id="Сгруппировать_217" data-name="Сгруппировать 217" transform="translate(20.687 10.336)">
    <g id="Сгруппировать_216" data-name="Сгруппировать 216">
      <path id="Контур_37" data-name="Контур 37" d="M275.274,264.647h-9.1a2.278,2.278,0,0,0-2.276,2.276.621.621,0,1,0,1.241,0,1.035,1.035,0,0,1,1.034-1.034h9.1a1.035,1.035,0,0,1,1.034,1.034.621.621,0,1,0,1.241,0A2.278,2.278,0,0,0,275.274,264.647Z" transform="translate(-263.896 -264.647)" fill="#222a3a"/>
    </g>
  </g>
  <g id="Сгруппировать_219" data-name="Сгруппировать 219" transform="translate(2.069 0.407)">
    <g id="Сгруппировать_218" data-name="Сгруппировать 218">
      <path id="Контур_38" data-name="Контур 38" d="M63.063,140.2a1.862,1.862,0,1,0-2.483,1.755V143.3H46.717a1.035,1.035,0,0,1-1.031-1.034.621.621,0,0,0-.621-.621h0a.621.621,0,0,0-.621.621,1.035,1.035,0,0,1-1.031,1.034H29.55v-1.348a1.862,1.862,0,1,0-1.241,0v8.588a.621.621,0,1,0,1.241,0v-6h13.86a2.269,2.269,0,0,0,1.655-.716,2.269,2.269,0,0,0,1.655.716h13.86v6a.621.621,0,1,0,1.241,0v-8.588A1.865,1.865,0,0,0,63.063,140.2Zm-34.133.621a.621.621,0,1,1,.621-.621A.621.621,0,0,1,28.93,140.821Zm32.271,0a.621.621,0,1,1,.621-.621A.621.621,0,0,1,61.2,140.821Z" transform="translate(-27.068 -138.339)" fill="#222a3a"/>
    </g>
  </g>
</svg>
