<svg id="wedding-cake" xmlns="http://www.w3.org/2000/svg" width="27.659" height="31.611" viewBox="0 0 27.659 31.611">
  <g id="Сгруппировать_223" data-name="Сгруппировать 223" transform="translate(0)">
    <path id="Контур_42" data-name="Контур 42" d="M54.367,16.464h-.659V10.537A2.637,2.637,0,0,0,51.074,7.9H49.757V4.61a1.978,1.978,0,0,0-1.976-1.976h-.818a1.926,1.926,0,0,0,.093-.593A2.039,2.039,0,0,0,43.83.381,2.039,2.039,0,0,0,40.6,2.042a1.926,1.926,0,0,0,.093.593h-.818A1.978,1.978,0,0,0,37.9,4.61V7.9H36.586a2.637,2.637,0,0,0-2.634,2.634v5.927h-.659A3.3,3.3,0,0,0,30,19.757v9.22a2.637,2.637,0,0,0,2.634,2.634H55.025a2.637,2.637,0,0,0,2.634-2.634v-9.22A3.3,3.3,0,0,0,54.367,16.464ZM42.644,1.317a.72.72,0,0,1,.621.352.659.659,0,0,0,1.128,0,.724.724,0,0,1,1.346.373.605.605,0,0,1-.218.466L43.83,3.917l-1.691-1.41a.605.605,0,0,1-.218-.466A.725.725,0,0,1,42.644,1.317ZM39.22,4.61a.659.659,0,0,1,.659-.659h1.935l1.246,1.038a1.2,1.2,0,0,0,1.542,0l1.246-1.038h1.935a.659.659,0,0,1,.659.659v3.6a21.914,21.914,0,0,1-4.61.355,21.914,21.914,0,0,1-4.61-.355ZM36.586,9.22h1.685a4.368,4.368,0,0,0,1.752.461,32.346,32.346,0,0,0,3.807.2,32.348,32.348,0,0,0,3.807-.2,4.368,4.368,0,0,0,1.752-.461h1.685a1.319,1.319,0,0,1,1.317,1.317A1.975,1.975,0,0,1,49.1,12.009.659.659,0,0,0,48,12.5v.013A1.976,1.976,0,0,1,44.378,13.6a.659.659,0,0,0-1.1,0,1.976,1.976,0,0,1-3.622-1.091V12.5a.659.659,0,0,0-1.1-.491,1.975,1.975,0,0,1-3.293-1.472A1.319,1.319,0,0,1,36.586,9.22Zm-1.317,3.95a3.29,3.29,0,0,0,3.249.4,3.293,3.293,0,0,0,5.312,1.393,3.293,3.293,0,0,0,5.313-1.393,3.29,3.29,0,0,0,3.249-.4v4.551a5.493,5.493,0,0,1-2.574.893,33.582,33.582,0,0,1-5.987.484,33.582,33.582,0,0,1-5.987-.484,5.493,5.493,0,0,1-2.574-.893ZM56.342,28.976a1.319,1.319,0,0,1-1.317,1.317H32.634a1.319,1.319,0,0,1-1.317-1.317V24.365a3.292,3.292,0,0,0,4.158-.166,3.294,3.294,0,0,0,5.479,1.113,3.292,3.292,0,0,0,5.75,0A3.294,3.294,0,0,0,52.184,24.2a3.292,3.292,0,0,0,4.158.166Zm0-7.244a1.976,1.976,0,0,1-3.889.494.659.659,0,0,0-.638-.494h-.083a.659.659,0,0,0-.659.659v.659a1.976,1.976,0,0,1-3.889.494.659.659,0,0,0-.638-.494h-.083a.659.659,0,0,0-.659.659,1.976,1.976,0,1,1-3.951,0,.659.659,0,0,0-.659-.659h-.083a.659.659,0,0,0-.638.494,1.976,1.976,0,0,1-3.889-.494v-.659a.659.659,0,0,0-.659-.659h-.083a.659.659,0,0,0-.638.494,1.976,1.976,0,0,1-3.889-.494V19.757a1.978,1.978,0,0,1,1.976-1.976h.659c0,.922,1.024,1.57,3.221,2.041a33.331,33.331,0,0,0,6.657.593,33.331,33.331,0,0,0,6.657-.593c2.2-.471,3.221-1.119,3.221-2.041h.659a1.978,1.978,0,0,1,1.976,1.976Z" transform="translate(-30)" fill="#222a3a"/>
  </g>
</svg>
