<svg id="curtains" xmlns="http://www.w3.org/2000/svg" width="18.118" height="18.118" viewBox="0 0 18.118 18.118">
  <g id="Сгруппировать_207" data-name="Сгруппировать 207">
    <path id="Контур_32" data-name="Контур 32" d="M17.741,17.363h-.377V10.191h.377a.377.377,0,1,0,0-.755h-.377V8.688s0-.009,0-.014V4.907A4.157,4.157,0,0,0,13.211.755H11.6A1.7,1.7,0,0,0,9.059.434,1.7,1.7,0,0,0,6.515.755H4.907A4.157,4.157,0,0,0,.755,4.907V8.675s0,.009,0,.014v.748H.377a.377.377,0,1,0,0,.755H.755v7.172H.377a.377.377,0,0,0,0,.755H7.549a.377.377,0,0,0,0-.755H6.3l-2.688-6.87A1.919,1.919,0,0,0,3.244,9.9a7.925,7.925,0,0,0,2.9-1.5,7.964,7.964,0,0,0,2.6-3.93.911.911,0,0,0,.625,0,7.964,7.964,0,0,0,2.6,3.93,7.925,7.925,0,0,0,2.9,1.5,1.918,1.918,0,0,0-.365.589l-2.688,6.87H10.569a.377.377,0,0,0,0,.755h7.172a.377.377,0,1,0,0-.755Zm-12.254,0H1.51V10.182q.385-.019.765-.074a.378.378,0,0,0,.068.043,1.161,1.161,0,0,1,.563.617ZM1.51,9.426v-.5a7.413,7.413,0,0,0,2.733-2.14,8.2,8.2,0,0,0,1.621-3.52.377.377,0,1,0-.741-.146A7.158,7.158,0,0,1,1.51,8.092V4.907a3.4,3.4,0,0,1,3.4-3.4H6.238a1.7,1.7,0,0,0-.01.189A1.582,1.582,0,0,0,6.8,2.917L8.093,4A7.211,7.211,0,0,1,1.51,9.426ZM9.369,3.56l-.011.009-.207.172a.148.148,0,0,1-.184,0L8.76,3.569,8.749,3.56,7.282,2.337a.829.829,0,0,1-.3-.639.944.944,0,0,1,1.753-.486.377.377,0,0,0,.647,0,.944.944,0,0,1,1.753.486.829.829,0,0,1-.3.639Zm7.239,13.8H12.632l2.58-6.595a1.161,1.161,0,0,1,.563-.617.382.382,0,0,0,.068-.043q.38.055.765.074Zm0-9.271a7.158,7.158,0,0,1-3.613-4.967.377.377,0,1,0-.741.146,8.2,8.2,0,0,0,1.621,3.52,7.413,7.413,0,0,0,2.733,2.14v.5A7.21,7.21,0,0,1,10.025,4l1.294-1.079A1.582,1.582,0,0,0,11.89,1.7a1.712,1.712,0,0,0-.01-.189h1.332a3.4,3.4,0,0,1,3.4,3.4Z" fill="#222a3a"/>
  </g>
</svg>
