<svg xmlns="http://www.w3.org/2000/svg" width="20.73" height="20.73" viewBox="0 0 20.73 20.73">
  <g id="glasses" transform="translate(0.1 0.1)">
    <g id="Сгруппировать_220" data-name="Сгруппировать 220" transform="translate(0)">
      <path id="Контур_39" data-name="Контур 39" d="M20.194,0H13.876a1.7,1.7,0,0,0-1.658,1.354H8.913a.338.338,0,0,0-.338.338v.373A1.7,1.7,0,0,0,7.221,3.722h0V6.317H5.3a.338.338,0,0,0-.338.338A2.6,2.6,0,0,0,7.221,9.227v1.6h-4.4a.338.338,0,0,0-.338.338A2.6,2.6,0,0,0,4.74,13.739v1.6H.34A.338.338,0,0,0,0,15.68a2.6,2.6,0,0,0,2.256,2.572v1.6H1.694a.338.338,0,1,0,0,.677H3.5a.338.338,0,1,0,0-.677H2.935v-1.6a2.6,2.6,0,0,0,2.143-1.815,2.6,2.6,0,0,0,2.143,1.815v1.6H6.657a.338.338,0,1,0,0,.677h1.8a.338.338,0,1,0,0-.677H7.9v-1.6a2.6,2.6,0,0,0,2.143-1.815,2.6,2.6,0,0,0,2.143,1.815v1.6h-.564a.338.338,0,0,0,0,.677h1.8a.338.338,0,0,0,0-.677h-.564v-1.6a2.6,2.6,0,0,0,2.256-2.572.338.338,0,0,0-.338-.338h-4.4v-1.6a2.6,2.6,0,0,0,2.256-2.572.338.338,0,0,0-.338-.338H7.9v-1.6a2.6,2.6,0,0,0,2.256-2.572.338.338,0,0,0-.338-.338H7.9V3.722h0a1.017,1.017,0,0,1,.677-.956v.28a.338.338,0,0,0,.338.338h3.305a1.7,1.7,0,0,0,1.658,1.354h4.061a.339.339,0,0,0,.339-.339s0,0,0-.007V.677h1.579V4.061h-.564a.338.338,0,0,0,0,.677h.9a.338.338,0,0,0,.338-.338V.338A.338.338,0,0,0,20.194,0ZM2.6,17.6A1.92,1.92,0,0,1,.709,16.018H4.484A1.92,1.92,0,0,1,2.6,17.6ZM14.41,16.018a1.917,1.917,0,0,1-3.774,0ZM5.078,13.085a1.92,1.92,0,0,1-1.887-1.579H6.965A1.92,1.92,0,0,1,5.078,13.085ZM7.56,17.6a1.92,1.92,0,0,1-1.887-1.579H9.447A1.92,1.92,0,0,1,7.56,17.6Zm4.369-6.092a1.917,1.917,0,0,1-3.774,0ZM9.7,13.739v1.6H5.416v-1.6A2.6,2.6,0,0,0,7.56,11.924,2.6,2.6,0,0,0,9.7,13.739ZM9.447,6.994a1.917,1.917,0,0,1-3.774,0Zm.482-4.286H9.252V2.03h.677Zm4.512,1.354h-.564a1.016,1.016,0,0,1-1.015-1.015.338.338,0,0,0-.338-.338H10.605V2.03h1.918a.339.339,0,0,0,.338-.338A1.016,1.016,0,0,1,13.877.677h.564Zm3.158,0H15.117V.677H17.6Z" transform="translate(-0.002)" fill="#222a3a" stroke="#222a3a" stroke-width="0.2"/>
    </g>
  </g>
</svg>
