<svg id="microphone" xmlns="http://www.w3.org/2000/svg" width="18.504" height="18.504" viewBox="0 0 18.504 18.504">
  <g id="Сгруппировать_222" data-name="Сгруппировать 222" transform="translate(0 0)">
    <g id="Сгруппировать_221" data-name="Сгруппировать 221">
      <path id="Контур_40" data-name="Контур 40" d="M17.213,1.392a4.592,4.592,0,0,0-6.255-.308l-.069-.069a.386.386,0,1,0-.545.545l.069.069A4.564,4.564,0,0,0,9.332,4.438H9.286a.854.854,0,0,0-.619.319L1.325,13.937a.852.852,0,0,0,.063,1.136.131.131,0,0,1,0,.185,1.273,1.273,0,0,0-.208,1.524L.114,17.847a.386.386,0,1,0,.545.545l1.064-1.064a1.273,1.273,0,0,0,1.531-.2.131.131,0,0,1,.185,0,.852.852,0,0,0,1.136.063l9.178-7.343a.854.854,0,0,0,.319-.619c0-.015,0-.031,0-.046A4.575,4.575,0,0,0,16.883,8.1l.069.069a.386.386,0,0,0,.545-.545l-.069-.069a4.609,4.609,0,0,0-.215-6.163ZM13.272,9.243,4.094,16.585a.082.082,0,0,1-.109-.006.9.9,0,0,0-1.275,0,.5.5,0,0,1-.707,0l-.035-.035,0,0,0,0-.03-.03a.5.5,0,0,1,0-.707.9.9,0,0,0,0-1.275.082.082,0,0,1-.006-.109L9.269,5.24a.082.082,0,0,1,.122-.007l.745.745L8.586,7.916A1.43,1.43,0,0,0,10.6,9.926l1.938-1.55.745.745a.082.082,0,0,1-.007.122Zm-2.35-3.011a.08.08,0,0,1,.059-.031h0a.079.079,0,0,1,.057.024l1.244,1.244a.082.082,0,0,1-.007.122L10.114,9.324A.659.659,0,0,1,9.188,8.4ZM13.65,8.4l-.61-.61a.852.852,0,0,0-.207-.868L11.588,5.679a.853.853,0,0,0-.868-.207l-.61-.61a3.8,3.8,0,0,1,.85-2.685l5.375,5.375A3.81,3.81,0,0,1,13.65,8.4Zm4.084-3.755a3.8,3.8,0,0,1-.854,2.359L11.505,1.631a3.814,3.814,0,0,1,6.229,3.016Z" transform="translate(-0.001 0)" fill="#222a3a"/>
      <path id="Контур_41" data-name="Контур 41" d="M265.738,187.337a.384.384,0,0,0,.273-.113l.33-.33a.386.386,0,0,0-.545-.545l-.33.33a.386.386,0,0,0,.273.658Z" transform="translate(-255.123 -179.056)" fill="#222a3a"/>
    </g>
  </g>
</svg>
