<svg xmlns="http://www.w3.org/2000/svg" width="20.345" height="18.725" viewBox="0 0 20.345 18.725">
  <path id="serving-dish" d="M19,9.314h-.689a8.32,8.32,0,0,0-.761-3.009.29.29,0,1,0-.527.245,7.744,7.744,0,0,1,.706,2.764H4.43a.29.29,0,0,0,0,.58H19a.266.266,0,0,1,.266.266v.354a.266.266,0,0,1-.266.266H.847a.266.266,0,0,1-.266-.266v-.354a.266.266,0,0,1,.266-.266h2.23a.29.29,0,1,0,0-.58H2.118A7.822,7.822,0,0,1,9.4,2.036h0q.119-.008.234-.012l.046,0,.082,0,.156,0c.069,0,.139,0,.208,0l.061,0,.16.007.085,0a7.828,7.828,0,0,1,5.94,3.383.29.29,0,0,0,.479-.329,8.41,8.41,0,0,0-5.742-3.567,1.413,1.413,0,0,0,.226-.766c0-.158-.07-.449-.542-.622a2.91,2.91,0,0,0-1.749,0C8.577.308,8.507.6,8.507.757a1.415,1.415,0,0,0,.225.765,8.405,8.405,0,0,0-7.2,7.793H.847A.848.848,0,0,0,0,10.161v.354a.848.848,0,0,0,.847.847H3.974a3.6,3.6,0,0,0-.446.36l-.006.005a.263.263,0,0,0-.025.027L2.12,13.428a.8.8,0,0,0-1.093.227l-.542.8A.8.8,0,0,0,.7,15.567l3.709,2.52a.8.8,0,0,0,.449.139.815.815,0,0,0,.152-.015.8.8,0,0,0,.513-.338l.542-.8a.8.8,0,0,0-.213-1.113l-.021-.014a1.877,1.877,0,0,1,.977-.59,6.38,6.38,0,0,1,2.347.039,5.545,5.545,0,0,0,2.366-.127l1.069-.3a5.5,5.5,0,0,0,1.948-.985l.013-.011,1.835-1.625a.9.9,0,0,0,.273-.99H19a.848.848,0,0,0,.847-.847v-.354A.848.848,0,0,0,19,9.314ZM9.923.581a1.36,1.36,0,0,1,.835.188.836.836,0,0,1-.37.682l-.17-.008-.057,0c-.081,0-.161,0-.239,0l-.169,0-.083,0-.1,0-.114.005a.836.836,0,0,1-.37-.682A1.36,1.36,0,0,1,9.923.581ZM12,11.5a.957.957,0,0,0-.077-.14h2.784l-1.2.8-1.716.5h-.058A.988.988,0,0,0,12,11.5Zm-3.148-.14-.419.087-.324-.087ZM5.583,16.748l-.542.8a.221.221,0,0,1-.307.059l-3.709-2.52a.221.221,0,0,1-.059-.307l.542-.8a.221.221,0,0,1,.307-.059l.2.136h0l3.508,2.383a.222.222,0,0,1,.059.307Zm10.445-4.855-.02.016L14.17,13.537a4.926,4.926,0,0,1-1.737.876l-1.069.3a4.956,4.956,0,0,1-2.116.114,6.912,6.912,0,0,0-2.573-.032,2.466,2.466,0,0,0-1.328.827L2.6,13.755l1.332-1.617a2.733,2.733,0,0,1,1.754-.775H5.7a2.188,2.188,0,0,1,.6.112l.128.035,1.922.519a.29.29,0,0,0,.135,0l2.518-.525a.433.433,0,0,1,.329.064.39.39,0,0,1,.138.165.406.406,0,0,1-.188.525l-.859.455a.29.29,0,0,0,.142.547l1.274-.028a.293.293,0,0,0,.074-.011l1.8-.519a.291.291,0,0,0,.08-.037l1.811-1.2c.152-.094.354-.171.462-.012a.346.346,0,0,1-.037.437Zm0,0" transform="translate(0.25 0.25)" fill="#222a3a" stroke="#222a3a" stroke-width="0.5"/>
</svg>
