<svg id="wedding-cake" xmlns="http://www.w3.org/2000/svg" width="16.191" height="18.504" viewBox="0 0 16.191 18.504">
  <g id="Сгруппировать_223" data-name="Сгруппировать 223" transform="translate(0)">
    <path id="Контур_42" data-name="Контур 42" d="M44.264,9.638h-.386V6.168a1.544,1.544,0,0,0-1.542-1.542h-.771V2.7a1.158,1.158,0,0,0-1.157-1.157H39.93a1.127,1.127,0,0,0,.055-.347A1.194,1.194,0,0,0,38.1.223a1.194,1.194,0,0,0-1.889.972,1.128,1.128,0,0,0,.055.347h-.479A1.158,1.158,0,0,0,34.626,2.7V4.626h-.771a1.544,1.544,0,0,0-1.542,1.542v3.47h-.386A1.93,1.93,0,0,0,30,11.565v5.4A1.544,1.544,0,0,0,31.542,18.5H44.649a1.544,1.544,0,0,0,1.542-1.542v-5.4A1.93,1.93,0,0,0,44.264,9.638ZM37.4.771a.421.421,0,0,1,.364.206.386.386,0,0,0,.66,0,.424.424,0,0,1,.788.218.354.354,0,0,1-.128.273l-.99.825-.99-.825a.354.354,0,0,1-.128-.273A.425.425,0,0,1,37.4.771ZM35.4,2.7a.386.386,0,0,1,.386-.386h1.133l.729.608a.705.705,0,0,0,.9,0l.729-.608h1.133a.386.386,0,0,1,.386.386V4.8a12.828,12.828,0,0,1-2.7.208A12.828,12.828,0,0,1,35.4,4.8ZM33.855,5.4h.987a2.557,2.557,0,0,0,1.025.27,18.935,18.935,0,0,0,2.229.116,18.936,18.936,0,0,0,2.229-.116A2.557,2.557,0,0,0,41.35,5.4h.987a.772.772,0,0,1,.771.771,1.156,1.156,0,0,1-1.927.862.386.386,0,0,0-.643.287v.007a1.156,1.156,0,0,1-2.12.639.386.386,0,0,0-.642,0,1.156,1.156,0,0,1-2.12-.639V7.317a.385.385,0,0,0-.643-.287,1.156,1.156,0,0,1-1.927-.862A.772.772,0,0,1,33.855,5.4Zm-.771,2.312a1.926,1.926,0,0,0,1.9.237,1.928,1.928,0,0,0,3.11.816,1.928,1.928,0,0,0,3.11-.816,1.926,1.926,0,0,0,1.9-.237v2.664A3.216,3.216,0,0,1,41.6,10.9a19.658,19.658,0,0,1-3.5.284,19.658,19.658,0,0,1-3.5-.284,3.216,3.216,0,0,1-1.507-.523ZM45.42,16.962a.772.772,0,0,1-.771.771H31.542a.772.772,0,0,1-.771-.771v-2.7a1.927,1.927,0,0,0,2.434-.1,1.928,1.928,0,0,0,3.207.652,1.927,1.927,0,0,0,3.366,0,1.928,1.928,0,0,0,3.207-.652,1.927,1.927,0,0,0,2.434.1Zm0-4.241a1.157,1.157,0,0,1-2.277.289.386.386,0,0,0-.373-.289h-.049a.385.385,0,0,0-.386.386v.386a1.157,1.157,0,0,1-2.277.289.386.386,0,0,0-.373-.289h-.049a.386.386,0,0,0-.386.386,1.157,1.157,0,1,1-2.313,0,.386.386,0,0,0-.386-.386h-.049a.386.386,0,0,0-.373.289,1.157,1.157,0,0,1-2.277-.289v-.386a.386.386,0,0,0-.386-.386h-.049a.386.386,0,0,0-.373.289,1.157,1.157,0,0,1-2.277-.289V11.565a1.158,1.158,0,0,1,1.157-1.157h.386c0,.539.6.919,1.886,1.195a19.512,19.512,0,0,0,3.9.347,19.512,19.512,0,0,0,3.9-.347c1.286-.276,1.886-.655,1.886-1.195h.386a1.158,1.158,0,0,1,1.157,1.157Z" transform="translate(-30)" fill="#222a3a"/>
  </g>
</svg>
