<svg id="wedding" xmlns="http://www.w3.org/2000/svg" width="23.493" height="17.434" viewBox="0 0 23.493 17.434">
  <g id="Сгруппировать_211" data-name="Сгруппировать 211" transform="translate(10.108 0)">
    <g id="Сгруппировать_210" data-name="Сгруппировать 210">
      <path id="Контур_34" data-name="Контур 34" d="M277.253,101.064a9.719,9.719,0,0,1-1.762-.314,1.073,1.073,0,0,0-.758,1.831l1,1a.363.363,0,0,0,.514,0l1-1A1.074,1.074,0,0,0,277.253,101.064Zm-.514,1-.746.746-.746-.746a.346.346,0,1,1,.49-.489.363.363,0,0,0,.257.106h0a.363.363,0,0,0,.257-.107.346.346,0,0,1,.489.49Z" transform="translate(-274.419 -100.75)" fill="#222a3a"/>
    </g>
  </g>
  <g id="Сгруппировать_213" data-name="Сгруппировать 213" transform="translate(0 8.473)">
    <g id="Сгруппировать_212" data-name="Сгруппировать 212">
      <path id="Контур_35" data-name="Контур 35" d="M21.943,317.273H3.052a2.3,2.3,0,0,0-2.3,2.3v4.36a.363.363,0,0,0,.363.363H2.2v1.574a.363.363,0,0,0,.363.363H6.927a.363.363,0,0,0,.363-.363V324.3H17.7v1.574a.363.363,0,0,0,.363.363h4.359a.363.363,0,0,0,.363-.363V324.3h1.09a.363.363,0,0,0,.363-.363v-4.36A2.3,2.3,0,0,0,21.943,317.273Zm-20.465,2.3A1.576,1.576,0,0,1,3.052,318H21.943a1.576,1.576,0,0,1,1.574,1.574v2.543H1.478Zm1.453,5.934V324.3H6.564v1.211Zm19.133,0H18.431V324.3h3.633v1.211Zm1.453-1.937H1.478v-.727h22.04v.727Z" transform="translate(-0.751 -317.273)" fill="#222a3a"/>
    </g>
  </g>
  <g id="Сгруппировать_215" data-name="Сгруппировать 215" transform="translate(3.391 6.051)">
    <g id="Сгруппировать_214" data-name="Сгруппировать 214">
      <path id="Контур_36" data-name="Контур 36" d="M81.1,264.647H75.767a1.334,1.334,0,0,0-1.332,1.332.363.363,0,1,0,.727,0,.606.606,0,0,1,.605-.605H81.1a.606.606,0,0,1,.605.605.363.363,0,1,0,.727,0A1.334,1.334,0,0,0,81.1,264.647Z" transform="translate(-74.435 -264.647)" fill="#222a3a"/>
    </g>
  </g>
  <g id="Сгруппировать_217" data-name="Сгруппировать 217" transform="translate(12.11 6.051)">
    <g id="Сгруппировать_216" data-name="Сгруппировать 216">
      <path id="Контур_37" data-name="Контур 37" d="M270.556,264.647h-5.328a1.334,1.334,0,0,0-1.332,1.332.363.363,0,1,0,.727,0,.606.606,0,0,1,.605-.605h5.328a.606.606,0,0,1,.605.605.363.363,0,1,0,.727,0A1.334,1.334,0,0,0,270.556,264.647Z" transform="translate(-263.896 -264.647)" fill="#222a3a"/>
    </g>
  </g>
  <g id="Сгруппировать_219" data-name="Сгруппировать 219" transform="translate(1.211 0.238)">
    <g id="Сгруппировать_218" data-name="Сгруппировать 218">
      <path id="Контур_38" data-name="Контур 38" d="M48.139,139.429a1.09,1.09,0,1,0-1.453,1.027v.789H38.57a.606.606,0,0,1-.6-.605.363.363,0,0,0-.363-.363h0a.363.363,0,0,0-.363.363.606.606,0,0,1-.6.605H28.521v-.789a1.09,1.09,0,1,0-.727,0v5.027a.363.363,0,1,0,.727,0v-3.512h8.114a1.328,1.328,0,0,0,.969-.419,1.328,1.328,0,0,0,.969.419h8.114v3.512a.363.363,0,1,0,.727,0v-3.874h0v-1.151A1.092,1.092,0,0,0,48.139,139.429Zm-19.981.363a.363.363,0,1,1,.363-.363A.364.364,0,0,1,28.158,139.792Zm18.891,0a.363.363,0,1,1,.363-.363A.364.364,0,0,1,47.049,139.792Z" transform="translate(-27.068 -138.339)" fill="#222a3a"/>
    </g>
  </g>
</svg>
