<svg id="bathtub" xmlns="http://www.w3.org/2000/svg" width="20.127" height="13.695" viewBox="0 0 20.127 13.695">
  <g id="Сгруппировать_153" data-name="Сгруппировать 153" transform="translate(0 0)">
    <path id="Контур_28" data-name="Контур 28" d="M19.8,67.27H2.9V64.2a1.535,1.535,0,0,1,3.071,0,.332.332,0,1,0,.664,0,2.2,2.2,0,0,0-4.4,0v3.092H.332A.328.328,0,0,0,0,67.623a.359.359,0,0,0,.353.311H.788v3.112a3.54,3.54,0,0,0,.83,2.282L.83,74.18a.909.909,0,0,0,.041,1.266.866.866,0,0,0,.6.249.93.93,0,0,0,.664-.29l.954-1.017a3.306,3.306,0,0,0,1.286.249H15.77a3.636,3.636,0,0,0,1.349-.27l.975,1.037a.9.9,0,0,0,.664.29.831.831,0,0,0,.6-.249A.909.909,0,0,0,19.4,74.18l-.83-.892a3.55,3.55,0,0,0,.788-2.241V67.934H19.8a.332.332,0,1,0,0-.664Zm-18.363.664H18.675v.353H1.432Zm.207,7.034a.216.216,0,0,1-.332,0,.257.257,0,0,1-.021-.353l.788-.83a4.786,4.786,0,0,0,.394.29Zm17.243-.332a.216.216,0,0,1,0,.332.258.258,0,0,1-.353-.021l-.851-.892a2.759,2.759,0,0,0,.394-.29ZM18.7,71.068a2.88,2.88,0,0,1-.809,1.992,2.931,2.931,0,0,1-2.116.913H4.378a2.905,2.905,0,0,1-1.266-.29,3.319,3.319,0,0,1-.83-.581,2.87,2.87,0,0,1-.83-2.033V68.951H18.7Z" transform="translate(0 -62)" fill="#222a3a"/>
  </g>
</svg>
