<svg id="bed" xmlns="http://www.w3.org/2000/svg" width="20.158" height="13.625" viewBox="0 0 20.158 13.625">
  <g id="Сгруппировать_126" data-name="Сгруппировать 126" transform="translate(0 0)">
    <path id="Контур_18" data-name="Контур 18" d="M18.2,65.882V62.6a1.87,1.87,0,0,0-2-2H3.9a1.859,1.859,0,0,0-2,2v3.277A2.053,2.053,0,0,0,0,68.124v2.544a.773.773,0,0,0,.776.776h.259v2a.773.773,0,0,0,.776.776h.733a.773.773,0,0,0,.776-.776V71.423H16.838v2.027a.773.773,0,0,0,.776.776h.733a.773.773,0,0,0,.776-.776V71.423h.259a.773.773,0,0,0,.776-.776V68.124A2.142,2.142,0,0,0,18.2,65.882ZM2.63,62.6h.043A1.1,1.1,0,0,1,3.9,61.376H16.191A1.1,1.1,0,0,1,17.42,62.6V65.86h-.582V64.006a.773.773,0,0,0-.776-.776H11.318a.773.773,0,0,0-.776.776V65.86H9.637V64.006a.773.773,0,0,0-.776-.776H4.118a.773.773,0,0,0-.776.776V65.86H2.63Zm13.431,1.4V65.86H11.318V64.006Zm-7.158,0V65.86H4.161V64.006ZM2.522,73.449H1.789V71.423h.733v2.027Zm15.781,0h-.733V71.423H18.3Zm1.013-2.781H.755V69.525H19.317Zm0-1.919H.755v-.625a1.355,1.355,0,0,1,1.488-1.488H17.829a1.347,1.347,0,0,1,1.488,1.488v.625Z" transform="translate(0 -60.6)" fill="#222a3a"/>
  </g>
</svg>
