<svg id="sofa" xmlns="http://www.w3.org/2000/svg" width="20.676" height="13.769" viewBox="0 0 20.676 13.769">
  <g id="Сгруппировать_142" data-name="Сгруппировать 142" transform="translate(0 0)">
    <g id="Сгруппировать_141" data-name="Сгруппировать 141" transform="translate(0 0)">
      <path id="Контур_22" data-name="Контур 22" d="M19.363,65.031V63.514A2.331,2.331,0,0,0,16.849,61H3.827a2.331,2.331,0,0,0-2.514,2.514v1.517A1.727,1.727,0,0,0,0,66.707v5.322a.909.909,0,0,0,.906.906h.43v1.019a.812.812,0,0,0,.815.815h.906a.812.812,0,0,0,.815-.815V72.935H16.8v1.019a.812.812,0,0,0,.815.815h.906a.812.812,0,0,0,.815-.815V72.935h.43a.909.909,0,0,0,.906-.906V66.707A1.726,1.726,0,0,0,19.363,65.031ZM2.106,63.536a1.555,1.555,0,0,1,1.721-1.721H16.759a1.546,1.546,0,0,1,1.721,1.721v1.517a1.72,1.72,0,0,0-1.314,1.653v.476H3.42v-.476a1.72,1.72,0,0,0-1.314-1.653ZM17.166,68V69.56H10.6V68ZM9.783,68V69.56H3.42V68ZM3.035,73.954H2.129V72.935h.906Zm15.445,0h-.906V72.935h.906Zm1.336-1.925a.1.1,0,0,1-.091.091H.906a.1.1,0,0,1-.091-.091V66.707a.906.906,0,0,1,1.812,0v3.261a.406.406,0,0,0,.408.408H17.6A.406.406,0,0,0,18,69.968V66.707a.906.906,0,0,1,1.812,0v5.322Z" transform="translate(0 -61)" fill="#222a3a"/>
    </g>
  </g>
  <g id="Сгруппировать_144" data-name="Сгруппировать 144" transform="translate(4.529 2.31)">
    <g id="Сгруппировать_143" data-name="Сгруппировать 143" transform="translate(0 0)">
      <path id="Контур_23" data-name="Контур 23" d="M81.246,101.8A1.228,1.228,0,0,0,80,103.046a1.257,1.257,0,0,0,1.246,1.246,1.246,1.246,0,0,0,0-2.491Zm0,1.676a.43.43,0,0,1-.43-.43.416.416,0,0,1,.43-.43.43.43,0,0,1,0,.861Z" transform="translate(-80 -101.8)" fill="#222a3a"/>
    </g>
  </g>
  <g id="Сгруппировать_146" data-name="Сгруппировать 146" transform="translate(13.384 2.31)">
    <g id="Сгруппировать_145" data-name="Сгруппировать 145" transform="translate(0 0)">
      <path id="Контур_24" data-name="Контур 24" d="M237.646,101.8a1.228,1.228,0,0,0-1.246,1.246,1.272,1.272,0,0,0,1.246,1.246,1.246,1.246,0,1,0,0-2.491Zm0,1.676a.43.43,0,1,1,.43-.43A.416.416,0,0,1,237.646,103.476Z" transform="translate(-236.4 -101.8)" fill="#222a3a"/>
    </g>
  </g>
</svg>
