<svg id="tv-table" xmlns="http://www.w3.org/2000/svg" width="17.511" height="15.789" viewBox="0 0 17.511 15.789">
  <g id="Сгруппировать_128" data-name="Сгруппировать 128" transform="translate(0 0)">
    <g id="Сгруппировать_127" data-name="Сгруппировать 127" transform="translate(0 0)">
      <path id="Контур_19" data-name="Контур 19" d="M17.511,23.913V20.636a1.469,1.469,0,0,0-1.481-1.462,1.485,1.485,0,0,0-1.481,1.481v3.239A1.45,1.45,0,0,0,15.7,25.319v1.37H10.2c0-.037.019-.074.019-.111v-.944a.235.235,0,0,0-.019-.111h3.295a.782.782,0,0,0,.777-.777V19.377a.782.782,0,0,0-.777-.777H4.109a.782.782,0,0,0-.777.777v5.405a.782.782,0,0,0,.777.777H7.4c0,.037-.019.074-.019.111v.944a.235.235,0,0,0,.019.111H1.833V25.467A1.484,1.484,0,0,0,2.98,24.042V20.747a1.481,1.481,0,0,0-2.962,0v3.239a1.45,1.45,0,0,0,1.148,1.425v1.277H.722A.723.723,0,0,0,0,27.411v6.257a.723.723,0,0,0,.722.722H16.771a.723.723,0,0,0,.722-.722V27.43a.723.723,0,0,0-.722-.722h-.407v-1.37A1.485,1.485,0,0,0,17.511,23.913Zm-2.3-3.258a.815.815,0,1,1,1.629-.019v.685H15.216ZM4.109,24.894A.159.159,0,0,1,4,24.764V19.377a.119.119,0,0,1,.111-.111h9.385a.119.119,0,0,1,.111.111v5.405a.119.119,0,0,1-.111.111H4.109Zm5.442.74v.944a.119.119,0,0,1-.111.111H8.182a.1.1,0,0,1-.111-.111v-.944a.119.119,0,0,1,.111-.111H9.44A.119.119,0,0,1,9.551,25.634ZM.685,20.747a.814.814,0,0,1,1.629,0V21.3H.685Zm0,3.258V21.969H2.314v2.018A.822.822,0,0,1,1.5,24.8.794.794,0,0,1,.685,24.005Zm16.16,9.662a.068.068,0,0,1-.074.074H.74a.08.08,0,0,1-.074-.074v-2.8H16.845Zm-.074-6.312a.08.08,0,0,1,.074.074v2.8H.666v-2.8a.08.08,0,0,1,.074-.074h16.03Zm-.74-2.647a.822.822,0,0,1-.814-.814V21.969h1.629v1.907A.826.826,0,0,1,16.03,24.708Z" transform="translate(0 -18.6)" fill="#222a3a"/>
    </g>
  </g>
  <g id="Сгруппировать_130" data-name="Сгруппировать 130" transform="translate(1.148 3.776)">
    <g id="Сгруппировать_129" data-name="Сгруппировать 129">
      <ellipse id="Эллипс_4" data-name="Эллипс 4" cx="0.352" cy="0.352" rx="0.352" ry="0.352" fill="#222a3a"/>
    </g>
  </g>
  <g id="Сгруппировать_132" data-name="Сгруппировать 132" transform="translate(1.148 5.053)">
    <g id="Сгруппировать_131" data-name="Сгруппировать 131" transform="translate(0 0)">
      <ellipse id="Эллипс_5" data-name="Эллипс 5" cx="0.352" cy="0.352" rx="0.352" ry="0.352" fill="#222a3a"/>
    </g>
  </g>
  <g id="Сгруппировать_134" data-name="Сгруппировать 134" transform="translate(15.678 3.776)">
    <g id="Сгруппировать_133" data-name="Сгруппировать 133">
      <ellipse id="Эллипс_6" data-name="Эллипс 6" cx="0.352" cy="0.352" rx="0.352" ry="0.352" fill="#222a3a"/>
    </g>
  </g>
  <g id="Сгруппировать_136" data-name="Сгруппировать 136" transform="translate(15.678 5.053)">
    <g id="Сгруппировать_135" data-name="Сгруппировать 135" transform="translate(0 0)">
      <ellipse id="Эллипс_7" data-name="Эллипс 7" cx="0.352" cy="0.352" rx="0.352" ry="0.352" fill="#222a3a"/>
    </g>
  </g>
  <g id="Сгруппировать_138" data-name="Сгруппировать 138" transform="translate(7.33 9.903)">
    <g id="Сгруппировать_137" data-name="Сгруппировать 137">
      <path id="Контур_20" data-name="Контур 20" d="M160.88,232.6h-2.147a.333.333,0,1,0,0,.666h2.147a.333.333,0,1,0,0-.666Z" transform="translate(-158.4 -232.6)" fill="#222a3a"/>
    </g>
  </g>
  <g id="Сгруппировать_140" data-name="Сгруппировать 140" transform="translate(7.33 13.439)">
    <g id="Сгруппировать_139" data-name="Сгруппировать 139">
      <path id="Контур_21" data-name="Контур 21" d="M160.88,309h-2.147a.333.333,0,1,0,0,.666h2.147a.333.333,0,1,0,0-.666Z" transform="translate(-158.4 -309)" fill="#222a3a"/>
    </g>
  </g>
</svg>
