<svg xmlns="http://www.w3.org/2000/svg" width="17.547" height="17.722" viewBox="0 0 17.547 17.722">
  <g id="wallet" transform="translate(-1.531 0.15)">
    <path id="Контур_92" data-name="Контур 92" d="M18.928,8.116h-.836V4.271A1.674,1.674,0,0,0,16.42,2.6H15.288L14.13.516a1,1,0,0,0-1.364-.39L8.319,2.6H3.353A1.674,1.674,0,0,0,1.681,4.271V15.75a1.674,1.674,0,0,0,1.672,1.672H16.42a1.674,1.674,0,0,0,1.672-1.672V12.379h.836V8.116ZM16.42,3.268a1,1,0,0,1,.992.892H16.156l-.5-.892ZM13.091.711a.341.341,0,0,1,.454.13l1.846,3.318H6.89ZM17.423,15.75a1,1,0,0,1-1,1H3.353a1,1,0,0,1-1-1V4.271a1,1,0,0,1,1-1H7.117l-1.6.892H3.562a.334.334,0,0,0,0,.669H17.423V8.116H14.978a2.062,2.062,0,0,0-2.06,2.06v.144a2.062,2.062,0,0,0,2.06,2.06h2.445Zm.836-4.04H14.978a1.392,1.392,0,0,1-1.391-1.391v-.144a1.392,1.392,0,0,1,1.391-1.391h3.281ZM16,10.275a.738.738,0,1,1-.738-.738A.738.738,0,0,1,16,10.275Z" fill="#222a3a" stroke="#212838" stroke-width="0.3"/>
  </g>
</svg>
