<svg id="Сгруппировать_158" data-name="Сгруппировать 158" xmlns="http://www.w3.org/2000/svg" width="17.208" height="22.242" viewBox="0 0 17.208 22.242">
  <g id="Сгруппировать_155" data-name="Сгруппировать 155" transform="translate(0 0)">
    <g id="Сгруппировать_154" data-name="Сгруппировать 154" transform="translate(0 0)">
      <path id="Контур_29" data-name="Контур 29" d="M122.379,144h-14.75a1.2,1.2,0,0,0-1.229,1.229v18.613a1.2,1.2,0,0,0,1.229,1.229h1v1.171h3.161v-1.171h6.438v1.171h3.161v-1.171h1a1.2,1.2,0,0,0,1.229-1.229V145.229A1.277,1.277,0,0,0,122.379,144Zm.059,19.842a.057.057,0,0,1-.059.059h-14.75c-.059,0-.059,0-.059-.059V145.171h14.867v18.671Zm0-19.842H107.571v1.229l.059-.059h14.75c.059,0,.059,0,.059.059Z" transform="translate(-106.4 -144)" fill="#222a3a"/>
    </g>
  </g>
  <g id="Сгруппировать_157" data-name="Сгруппировать 157" transform="translate(2.927 3.512)">
    <g id="Сгруппировать_156" data-name="Сгруппировать 156" transform="translate(0 0)">
      <path id="Контур_30" data-name="Контур 30" d="M146.985,192a.553.553,0,0,0-.585.585v3.746a.585.585,0,0,0,1.171,0v-3.746A.587.587,0,0,0,146.985,192Z" transform="translate(-146.4 -192)" fill="#222a3a"/>
    </g>
  </g>
</svg>
