<svg id="Сгруппировать_324" data-name="Сгруппировать 324" xmlns="http://www.w3.org/2000/svg" width="10.634" height="13.745" viewBox="0 0 10.634 13.745">
  <g id="Сгруппировать_155" data-name="Сгруппировать 155" transform="translate(0 0)">
    <g id="Сгруппировать_154" data-name="Сгруппировать 154" transform="translate(0 0)">
      <path id="Контур_29" data-name="Контур 29" d="M116.275,144H107.16a.742.742,0,0,0-.76.76v11.5a.742.742,0,0,0,.76.76h.615v.723h1.953v-.723h3.979v.723h1.953v-.723h.615a.742.742,0,0,0,.76-.76v-11.5A.789.789,0,0,0,116.275,144Zm.036,12.262a.035.035,0,0,1-.036.036H107.16c-.036,0-.036,0-.036-.036V144.723h9.188v11.539Zm0-12.262h-9.188v.76l.036-.036h9.115c.036,0,.036,0,.036.036Z" transform="translate(-106.4 -144)" fill="#222a3a"/>
    </g>
  </g>
  <g id="Сгруппировать_157" data-name="Сгруппировать 157" transform="translate(1.809 2.17)">
    <g id="Сгруппировать_156" data-name="Сгруппировать 156" transform="translate(0 0)">
      <path id="Контур_30" data-name="Контур 30" d="M146.762,192a.342.342,0,0,0-.362.362v2.315a.362.362,0,1,0,.723,0v-2.315A.362.362,0,0,0,146.762,192Z" transform="translate(-146.4 -192)" fill="#222a3a"/>
    </g>
  </g>
</svg>
