<svg xmlns="http://www.w3.org/2000/svg" width="32.41" height="25.893" viewBox="0 0 32.41 25.893">
  <path id="bath" d="M32.41,44.227a2.592,2.592,0,0,0-2.589-2.589H5.279v-7.22a1.312,1.312,0,1,1,2.623,0,.72.72,0,1,0,1.44,0,2.752,2.752,0,1,0-5.5,0v7.22H2.589a2.589,2.589,0,0,0-.719,5.075c.007,2.144.082,4.3.947,5.894a5.056,5.056,0,0,0,3.322,2.5l-.744,1.4a.72.72,0,1,0,1.271.678l.96-1.8a14.6,14.6,0,0,0,1.572.08H23.211a14.624,14.624,0,0,0,1.572-.08l.96,1.8a.72.72,0,1,0,1.271-.678l-.744-1.4a5.055,5.055,0,0,0,3.322-2.5c.865-1.594.941-3.75.947-5.894a2.593,2.593,0,0,0,1.87-2.486Zm-9.2,9.79H9.2c-5.361,0-5.852-2.466-5.887-7.2H29.1c-.034,4.735-.525,7.2-5.886,7.2Zm6.609-8.641H2.589a1.149,1.149,0,1,1,0-2.3H29.82a1.149,1.149,0,1,1,0,2.3Z" transform="translate(0 -31.666)" fill="#222a3a"/>
</svg>
