<svg xmlns="http://www.w3.org/2000/svg" width="41.215" height="24.854" viewBox="0 0 41.215 24.854">
  <path id="bed_1_" data-name="bed (1)" d="M38.286,73.509H37.88V66.794a4.275,4.275,0,0,0-4.27-4.271h-26a4.275,4.275,0,0,0-4.27,4.271v6.715H2.928A2.932,2.932,0,0,0,0,76.437v4.339A2.932,2.932,0,0,0,2.929,83.7H6.549v2.756a.916.916,0,0,0,1.832,0V83.7H32.834v2.756a.916.916,0,1,0,1.832,0V83.7h3.621a2.932,2.932,0,0,0,2.929-2.929V76.437a2.932,2.932,0,0,0-2.929-2.929ZM5.167,66.794a2.441,2.441,0,0,1,2.439-2.439h26a2.441,2.441,0,0,1,2.439,2.439v6.715H34.874V71.669a2.129,2.129,0,0,0-2.127-2.127H23.359a2.129,2.129,0,0,0-2.127,2.127v1.839H19.983V71.669a2.129,2.129,0,0,0-2.127-2.127H8.468a2.129,2.129,0,0,0-2.127,2.127v1.839H5.167V66.794Zm17.9,6.715V71.669a.3.3,0,0,1,.3-.3h9.388a.3.3,0,0,1,.3.3v1.839Zm-14.891,0V71.669a.3.3,0,0,1,.3-.3h9.388a.3.3,0,0,1,.3.3v1.839H8.173Zm31.211,7.268a1.1,1.1,0,0,1-1.1,1.1H2.929a1.1,1.1,0,0,1-1.1-1.1V76.437a1.1,1.1,0,0,1,1.1-1.1H38.286a1.1,1.1,0,0,1,1.1,1.1Z" transform="translate(0 -62.523)" fill="#222a3a"/>
</svg>
