<svg xmlns="http://www.w3.org/2000/svg" width="32.092" height="29.75" viewBox="0 0 32.092 29.75">
  <path id="fireplace" d="M31.378,36.634H29.77V16.486L32,12.556a.713.713,0,0,0-.62-1.065H.712a.713.713,0,0,0-.62,1.065l2.228,3.93V36.634H.712A.713.713,0,0,0,0,37.348v3.181a.713.713,0,0,0,.713.713H31.378a.713.713,0,0,0,.713-.713V37.348A.713.713,0,0,0,31.378,36.634Zm-5.687,0V22.754a.713.713,0,0,0-.713-.713c-1.823,0-3.715-1.091-5.384-2.053a8.3,8.3,0,0,0-3.548-1.464A8.3,8.3,0,0,0,12.5,19.988c-1.669.962-3.562,2.053-5.384,2.053a.713.713,0,0,0-.713.713v13.88H3.747V17.011h24.6V36.634Zm-5.586,0a5.738,5.738,0,0,0,.713-.764,4.94,4.94,0,0,0,1-3.9,8.354,8.354,0,0,0-2.436-3.984c-1.668-1.831-1.983-2.467-1.018-3.447a.713.713,0,0,0-.352-1.2,4.114,4.114,0,0,0-.9-.1A3.392,3.392,0,0,0,14.5,24.424a4.319,4.319,0,0,0-.956,2.677,3.463,3.463,0,0,0-.9-.118,2.529,2.529,0,0,0-2.375,1.278.713.713,0,0,0,.273.915c.791.482.777.948.611,2.346a13.429,13.429,0,0,0-.124,2.4,4.1,4.1,0,0,0,1.091,2.716H7.826V23.426a14.763,14.763,0,0,0,5.383-2.2,8.1,8.1,0,0,1,2.836-1.273,8.1,8.1,0,0,1,2.836,1.273,14.762,14.762,0,0,0,5.383,2.2V36.634H20.105ZM11.99,28.523a1.808,1.808,0,0,1,.649-.114,1.828,1.828,0,0,1,1.212.43.713.713,0,0,0,1.181-.639,3.525,3.525,0,0,1,.55-2.846,1.9,1.9,0,0,1,.962-.607c-.592,1.592.7,3.015,1.789,4.2a7.214,7.214,0,0,1,2.085,3.268A3.782,3.782,0,0,1,19.155,35.6a4.284,4.284,0,0,0,.223-.966,2.48,2.48,0,0,0-.521-1.878.713.713,0,0,0-1.1,0,3.758,3.758,0,0,0,.052-.931,3.248,3.248,0,0,0-1.509-2.49.713.713,0,0,0-1.113.555,3.469,3.469,0,0,1-.82,1.635,4.572,4.572,0,0,0-1.083,4.264,2.7,2.7,0,0,1-.839-1.938,12.239,12.239,0,0,1,.116-2.155c.137-1.159.267-2.264-.575-3.166Zm3.275,8.112c-1.33-2.047-.588-3.09.266-4.288a9.658,9.658,0,0,0,.688-1.06,1.652,1.652,0,0,1,.144.431,3.015,3.015,0,0,1-.443,1.922.713.713,0,0,0,.256,1.077,1.851,1.851,0,0,0,.81.185,1.984,1.984,0,0,0,.947-.244,5.393,5.393,0,0,1-.946,1.977H15.266ZM30.154,12.918l-1.512,2.667H3.449L1.937,12.918Zm.511,26.9H1.426V38.061H30.665Z" transform="translate(0.001 -11.491)" fill="#222a3a"/>
</svg>
