<svg id="fridge_1_" data-name="fridge (1)" xmlns="http://www.w3.org/2000/svg" width="17.865" height="31.307" viewBox="0 0 17.865 31.307">
  <path id="Контур_83" data-name="Контур 83" d="M84.794,0H68.321a.7.7,0,0,0-.7.7V30.611a.7.7,0,0,0,.7.7H84.794a.7.7,0,0,0,.7-.7V.7A.7.7,0,0,0,84.794,0Zm-.7,1.391V9.3H69.016V1.391ZM69.016,29.915V10.694H84.1V29.915Z" transform="translate(-67.625)" fill="#222a3a"/>
  <path id="Контур_84" data-name="Контур 84" d="M203.815,34.083a.7.7,0,0,0,.7-.7v-3.5a.7.7,0,1,0-1.391,0v3.5A.7.7,0,0,0,203.815,34.083Z" transform="translate(-189.653 -26.29)" fill="#222a3a"/>
  <path id="Контур_85" data-name="Контур 85" d="M203.815,160.612a.7.7,0,0,0-.7.7V168.6a.7.7,0,0,0,1.391,0v-7.293A.7.7,0,0,0,203.815,160.612Z" transform="translate(-189.653 -144.649)" fill="#222a3a"/>
</svg>
