<svg id="grill" xmlns="http://www.w3.org/2000/svg" width="27.211" height="35.647" viewBox="0 0 27.211 35.647">
  <path id="Контур_78" data-name="Контур 78" d="M108.089,136.434a.792.792,0,0,0-.588-.953,2.727,2.727,0,0,1-1.428-2.139.792.792,0,1,0-1.573-.192,4.172,4.172,0,0,0,2.636,3.872.791.791,0,0,0,.953-.588Z" transform="translate(-96.879 -117.464)" fill="#222a3a"/>
  <path id="Контур_79" data-name="Контур 79" d="M60.854,125.232a3.738,3.738,0,0,0-.461.03l-2.112-5.23a11.015,11.015,0,0,0,2.806-2.3,12.22,12.22,0,0,0,3.01-7.962.792.792,0,0,0-.792-.792H42.173a.792.792,0,0,0-.792.792,11.65,11.65,0,0,0,.106,1.557H38.067a.792.792,0,0,0,0,1.584h3.742a12.213,12.213,0,0,0,2.581,4.82,11.021,11.021,0,0,0,2.713,2.244l-4.411,11.235a.792.792,0,1,0,1.475.579l1-2.551H57.258a3.625,3.625,0,1,0,3.6-4.009ZM45.58,116.689A10.643,10.643,0,0,1,43,110.565H62.481a10.643,10.643,0,0,1-2.584,6.123A9.48,9.48,0,0,1,57,118.93l-.019.007a.813.813,0,0,0-.111.056,9.93,9.93,0,0,1-8.35-.038.8.8,0,0,0-.139-.071l0,0A9.494,9.494,0,0,1,45.58,116.689Zm2.951,3.989a11.468,11.468,0,0,0,8.318.039l2.049,5.074a3.564,3.564,0,0,0-1.491,1.866H45.791Zm12.324,10.033a1.95,1.95,0,1,1,2.047-1.947A2,2,0,0,1,60.854,130.711Z" transform="translate(-37.275 -96.648)" fill="#222a3a"/>
  <path id="Контур_80" data-name="Контур 80" d="M114.959,30.1a.792.792,0,1,0,.9,1.306c2.586-1.776,1.413-3.684.85-4.6-.623-1.014-.889-1.584.4-2.466a.792.792,0,1,0-.9-1.306c-2.587,1.776-1.413,3.685-.849,4.6C115.978,28.649,116.243,29.219,114.959,30.1Z" transform="translate(-105.845 -20.304)" fill="#222a3a"/>
  <path id="Контур_81" data-name="Контур 81" d="M209.162,30.1a.792.792,0,1,0,.9,1.306c2.587-1.776,1.413-3.685.85-4.6-.623-1.014-.888-1.584.4-2.466a.792.792,0,0,0-.9-1.306c-2.587,1.776-1.413,3.684-.85,4.6C210.182,28.647,210.447,29.217,209.162,30.1Z" transform="translate(-189.389 -20.302)" fill="#222a3a"/>
  <path id="Контур_82" data-name="Контур 82" d="M157.021,9.8a.792.792,0,1,0,.9,1.306c3.307-2.271,1.8-4.72,1.078-5.9-.9-1.458-1.3-2.439.625-3.761a.792.792,0,1,0-.9-1.306c-3.306,2.27-1.8,4.719-1.078,5.9.9,1.458,1.3,2.439-.625,3.762Z" transform="translate(-143.158 0)" fill="#222a3a"/>
</svg>
