<svg id="oven" xmlns="http://www.w3.org/2000/svg" width="27.211" height="31.785" viewBox="0 0 27.211 31.785">
  <path id="Контур_86" data-name="Контур 86" d="M49.171,0h-25.8a.706.706,0,0,0-.706.706V31.079a.706.706,0,0,0,.706.706h25.8a.706.706,0,0,0,.706-.706V.706A.706.706,0,0,0,49.171,0Zm-.706,1.413v5.26H24.08V1.413ZM24.08,30.372V8.085H48.465V30.372Z" transform="translate(-22.667)" fill="#222a3a"/>
  <circle id="Эллипс_11" data-name="Эллипс 11" cx="0.837" cy="0.837" r="0.837" transform="translate(3.947 3.206)" fill="#222a3a"/>
  <circle id="Эллипс_12" data-name="Эллипс 12" cx="0.837" cy="0.837" r="0.837" transform="translate(7.159 3.206)" fill="#222a3a"/>
  <circle id="Эллипс_13" data-name="Эллипс 13" cx="0.837" cy="0.837" r="0.837" transform="translate(18.379 3.206)" fill="#222a3a"/>
  <circle id="Эллипс_14" data-name="Эллипс 14" cx="0.837" cy="0.837" r="0.837" transform="translate(21.59 3.206)" fill="#222a3a"/>
  <path id="Контур_87" data-name="Контур 87" d="M138.75,23.418a2.1,2.1,0,1,0-2.1-2.1A2.107,2.107,0,0,0,138.75,23.418Zm0-2.8a.692.692,0,1,1-.692.691A.692.692,0,0,1,138.75,20.623Z" transform="translate(-125.145 -17.272)" fill="#222a3a"/>
  <path id="Контур_88" data-name="Контур 88" d="M74.809,135.05H55.493a.706.706,0,0,0-.706.706v13.5a.706.706,0,0,0,.706.706H74.809a.706.706,0,0,0,.706-.706v-13.5A.706.706,0,0,0,74.809,135.05Zm-.706,13.5H56.2V136.463H74.1Z" transform="translate(-51.546 -121.423)" fill="#222a3a"/>
  <path id="Контур_89" data-name="Контур 89" d="M74.809,102.142H55.493a.706.706,0,1,0,0,1.413H74.809a.706.706,0,1,0,0-1.413Z" transform="translate(-51.546 -91.835)" fill="#222a3a"/>
  <path id="Контур_90" data-name="Контур 90" d="M171.761,173.622a1.8,1.8,0,0,0-.668,1.382.706.706,0,0,0,1.413,0c0-.123.024-.161.237-.366a1.764,1.764,0,0,0,0-2.765c-.213-.205-.237-.243-.237-.367s.024-.161.237-.366a1.764,1.764,0,0,0,0-2.765c-.213-.205-.237-.243-.237-.366a.706.706,0,1,0-1.413,0,1.8,1.8,0,0,0,.668,1.382c.213.205.237.243.237.366s-.024.161-.237.366a1.764,1.764,0,0,0,0,2.765c.213.205.237.243.237.366S171.974,173.417,171.761,173.622Z" transform="translate(-156.116 -150.421)" fill="#222a3a"/>
  <path id="Контур_91" data-name="Контур 91" d="M121.6,173.622a1.8,1.8,0,0,0-.669,1.383.706.706,0,1,0,1.413,0c0-.123.024-.161.237-.366a1.764,1.764,0,0,0,0-2.765c-.213-.205-.237-.243-.237-.367s.024-.161.237-.366a1.764,1.764,0,0,0,0-2.765c-.213-.205-.237-.243-.237-.366a.706.706,0,1,0-1.413,0,1.8,1.8,0,0,0,.669,1.382c.213.205.237.243.237.366s-.024.161-.237.366a1.764,1.764,0,0,0,0,2.765c.213.205.237.243.237.366S121.814,173.417,121.6,173.622Z" transform="translate(-111.017 -150.421)" fill="#222a3a"/>
</svg>
