<svg xmlns="http://www.w3.org/2000/svg" width="42.304" height="19.746" viewBox="0 0 42.304 19.746">
  <path id="bus" d="M41.987,7.615l-2.18-4.8A4.825,4.825,0,0,0,35.436,0H4.181A4.185,4.185,0,0,0,0,4.181V14.63a2.3,2.3,0,0,0,2.291,2.291h3.42a3.525,3.525,0,0,0,6.91,0H29.683a3.525,3.525,0,0,0,6.91,0h3.751a1.962,1.962,0,0,0,1.96-1.96V9.074a3.512,3.512,0,0,0-.317-1.46Zm-1.529.046-6.616-.554V4.146L38.6,3.552ZM9.165,18.332a2.115,2.115,0,1,1,2.115-2.115A2.115,2.115,0,0,1,9.165,18.332Zm23.973,0a2.115,2.115,0,1,1,2.115-2.115A2.115,2.115,0,0,1,33.138,18.332Zm7.206-2.82H36.593a3.525,3.525,0,0,0-6.91,0H12.62a3.525,3.525,0,0,0-6.91,0H2.291a.883.883,0,0,1-.881-.881V4.181A2.774,2.774,0,0,1,4.181,1.41H35.436a3.4,3.4,0,0,1,2.229.839l-4.571.571H5.64a.705.705,0,0,0-.705.705v4.23a.705.705,0,0,0,.705.705H33.108l7.785.649v5.852a.551.551,0,0,1-.55.55Zm-34-8.461V4.23h4.936v2.82Zm6.346-2.82h5.641v2.82H12.691Zm7.051,0h4.936v2.82H19.741Zm6.346,0h6.346v2.82H26.087Zm0,0" transform="translate(0.001)" fill="#222a3a"/>
</svg>
