<svg xmlns="http://www.w3.org/2000/svg" width="38.407" height="31.191" viewBox="0 0 38.407 31.191">
  <g id="calendar" transform="translate(0 -48.095)">
    <g id="Сгруппировать_226" data-name="Сгруппировать 226" transform="translate(0 48.095)">
      <g id="Сгруппировать_225" data-name="Сгруппировать 225" transform="translate(0 0)">
        <path id="Контур_51" data-name="Контур 51" d="M36.04,50.5H34.8V49.259A1.165,1.165,0,0,0,33.635,48.1h-1.2a1.165,1.165,0,0,0-1.164,1.164V50.5H7.138V49.259A1.165,1.165,0,0,0,5.974,48.1h-1.2a1.165,1.165,0,0,0-1.164,1.164V50.5H2.367A2.369,2.369,0,0,0,0,52.867V76.919a2.369,2.369,0,0,0,2.367,2.367H36.04a2.369,2.369,0,0,0,2.367-2.367V52.867A2.369,2.369,0,0,0,36.04,50.5Zm-3.647-1.241a.039.039,0,0,1,.039-.039h1.2a.039.039,0,0,1,.039.039v2.405a.039.039,0,0,1-.039.039h-1.2a.039.039,0,0,1-.039-.039Zm-27.66,0a.039.039,0,0,1,.039-.039h1.2a.039.039,0,0,1,.039.039v2.405a.039.039,0,0,1-.039.039h-1.2a.039.039,0,0,1-.039-.039Zm31.307,28.9H2.367a1.243,1.243,0,0,1-1.241-1.241V52.867a1.243,1.243,0,0,1,1.241-1.241H3.608v.039a1.165,1.165,0,0,0,1.164,1.164h1.2a1.165,1.165,0,0,0,1.164-1.164v-.039h24.13v.039a1.165,1.165,0,0,0,1.164,1.164h1.2A1.165,1.165,0,0,0,34.8,51.664v-.039H36.04a1.243,1.243,0,0,1,1.241,1.241V76.919h0A1.243,1.243,0,0,1,36.04,78.161Z" transform="translate(0 -48.095)" fill="#222a3a"/>
      </g>
    </g>
    <g id="Сгруппировать_228" data-name="Сгруппировать 228" transform="translate(2.405 54.108)">
      <g id="Сгруппировать_227" data-name="Сгруппировать 227">
        <path id="Контур_52" data-name="Контур 52" d="M65.1,128.258H32.627a.563.563,0,0,0,0,1.125H65.1a.563.563,0,0,0,0-1.125Z" transform="translate(-32.064 -128.258)" fill="#222a3a"/>
      </g>
    </g>
    <g id="Сгруппировать_230" data-name="Сгруппировать 230" transform="translate(4.209 58.919)">
      <g id="Сгруппировать_229" data-name="Сгруппировать 229">
        <path id="Контур_53" data-name="Контур 53" d="M60.283,192.386H56.676a.563.563,0,1,0,0,1.125h3.608a.563.563,0,0,0,0-1.125Z" transform="translate(-56.113 -192.386)" fill="#222a3a"/>
      </g>
    </g>
    <g id="Сгруппировать_232" data-name="Сгруппировать 232" transform="translate(12.628 58.919)">
      <g id="Сгруппировать_231" data-name="Сгруппировать 231">
        <path id="Контур_54" data-name="Контур 54" d="M172.51,192.386H168.9a.563.563,0,0,0,0,1.125h3.608a.563.563,0,0,0,0-1.125Z" transform="translate(-168.339 -192.386)" fill="#222a3a"/>
      </g>
    </g>
    <g id="Сгруппировать_234" data-name="Сгруппировать 234" transform="translate(29.464 58.919)">
      <g id="Сгруппировать_233" data-name="Сгруппировать 233">
        <path id="Контур_55" data-name="Контур 55" d="M396.961,192.386h-3.608a.563.563,0,1,0,0,1.125h3.608a.563.563,0,0,0,0-1.125Z" transform="translate(-392.79 -192.386)" fill="#222a3a"/>
      </g>
    </g>
    <g id="Сгруппировать_236" data-name="Сгруппировать 236" transform="translate(4.209 63.729)">
      <g id="Сгруппировать_235" data-name="Сгруппировать 235">
        <path id="Контур_56" data-name="Контур 56" d="M60.283,256.516H56.676a.563.563,0,1,0,0,1.125h3.608a.563.563,0,1,0,0-1.125Z" transform="translate(-56.113 -256.516)" fill="#222a3a"/>
      </g>
    </g>
    <g id="Сгруппировать_238" data-name="Сгруппировать 238" transform="translate(21.046 63.729)">
      <g id="Сгруппировать_237" data-name="Сгруппировать 237">
        <path id="Контур_57" data-name="Контур 57" d="M284.735,256.516h-3.608a.563.563,0,1,0,0,1.125h3.608a.563.563,0,0,0,0-1.125Z" transform="translate(-280.564 -256.516)" fill="#222a3a"/>
      </g>
    </g>
    <g id="Сгруппировать_240" data-name="Сгруппировать 240" transform="translate(4.209 68.54)">
      <g id="Сгруппировать_239" data-name="Сгруппировать 239" transform="translate(0 0)">
        <path id="Контур_58" data-name="Контур 58" d="M60.283,320.646H56.676a.563.563,0,1,0,0,1.125h3.608a.563.563,0,1,0,0-1.125Z" transform="translate(-56.113 -320.646)" fill="#222a3a"/>
      </g>
    </g>
    <g id="Сгруппировать_242" data-name="Сгруппировать 242" transform="translate(12.628 68.54)">
      <g id="Сгруппировать_241" data-name="Сгруппировать 241" transform="translate(0 0)">
        <path id="Контур_59" data-name="Контур 59" d="M172.51,320.646H168.9a.563.563,0,1,0,0,1.125h3.608a.563.563,0,1,0,0-1.125Z" transform="translate(-168.339 -320.646)" fill="#222a3a"/>
      </g>
    </g>
    <g id="Сгруппировать_244" data-name="Сгруппировать 244" transform="translate(29.464 68.54)">
      <g id="Сгруппировать_243" data-name="Сгруппировать 243" transform="translate(0 0)">
        <path id="Контур_60" data-name="Контур 60" d="M396.961,320.646h-3.608a.563.563,0,1,0,0,1.125h3.608a.563.563,0,1,0,0-1.125Z" transform="translate(-392.79 -320.646)" fill="#222a3a"/>
      </g>
    </g>
    <g id="Сгруппировать_246" data-name="Сгруппировать 246" transform="translate(12.628 73.35)">
      <g id="Сгруппировать_245" data-name="Сгруппировать 245">
        <path id="Контур_61" data-name="Контур 61" d="M172.51,384.773H168.9a.563.563,0,0,0,0,1.125h3.608a.563.563,0,1,0,0-1.125Z" transform="translate(-168.339 -384.773)" fill="#222a3a"/>
      </g>
    </g>
    <g id="Сгруппировать_248" data-name="Сгруппировать 248" transform="translate(21.046 73.35)">
      <g id="Сгруппировать_247" data-name="Сгруппировать 247">
        <path id="Контур_62" data-name="Контур 62" d="M284.735,384.773h-3.608a.563.563,0,1,0,0,1.125h3.608a.563.563,0,0,0,0-1.125Z" transform="translate(-280.564 -384.773)" fill="#222a3a"/>
      </g>
    </g>
    <g id="Сгруппировать_250" data-name="Сгруппировать 250" transform="translate(29.464 73.35)">
      <g id="Сгруппировать_249" data-name="Сгруппировать 249">
        <path id="Контур_63" data-name="Контур 63" d="M396.961,384.773h-3.608a.563.563,0,1,0,0,1.125h3.608a.563.563,0,0,0,0-1.125Z" transform="translate(-392.79 -384.773)" fill="#222a3a"/>
      </g>
    </g>
    <g id="Сгруппировать_252" data-name="Сгруппировать 252" transform="translate(12.628 62.527)">
      <g id="Сгруппировать_251" data-name="Сгруппировать 251">
        <path id="Контур_64" data-name="Контур 64" d="M172.907,240.649a.563.563,0,0,0-.8,0l-2.007,2.008-.8-.8a.563.563,0,1,0-.8.8l1.2,1.2a.563.563,0,0,0,.8,0l2.405-2.405A.563.563,0,0,0,172.907,240.649Z" transform="translate(-168.339 -240.484)" fill="#222a3a"/>
      </g>
    </g>
    <g id="Сгруппировать_254" data-name="Сгруппировать 254" transform="translate(29.464 62.527)">
      <g id="Сгруппировать_253" data-name="Сгруппировать 253">
        <path id="Контур_65" data-name="Контур 65" d="M397.359,240.649a.563.563,0,0,0-.8,0l-2.007,2.008-.8-.8a.563.563,0,1,0-.8.8l1.2,1.2a.563.563,0,0,0,.8,0l2.405-2.405A.563.563,0,0,0,397.359,240.649Z" transform="translate(-392.791 -240.484)" fill="#222a3a"/>
      </g>
    </g>
    <g id="Сгруппировать_256" data-name="Сгруппировать 256" transform="translate(21.046 67.337)">
      <g id="Сгруппировать_255" data-name="Сгруппировать 255" transform="translate(0 0)">
        <path id="Контур_66" data-name="Контур 66" d="M285.133,304.778a.563.563,0,0,0-.8,0l-2.007,2.008-.8-.8a.563.563,0,0,0-.8.8l1.2,1.2a.563.563,0,0,0,.8,0l2.405-2.405A.563.563,0,0,0,285.133,304.778Z" transform="translate(-280.565 -304.613)" fill="#222a3a"/>
      </g>
    </g>
    <g id="Сгруппировать_258" data-name="Сгруппировать 258" transform="translate(4.209 72.148)">
      <g id="Сгруппировать_257" data-name="Сгруппировать 257">
        <path id="Контур_67" data-name="Контур 67" d="M60.681,368.908a.563.563,0,0,0-.8,0l-2.007,2.008-.8-.8a.563.563,0,0,0-.8.8l1.2,1.2a.563.563,0,0,0,.8,0l2.405-2.405A.563.563,0,0,0,60.681,368.908Z" transform="translate(-56.113 -368.743)" fill="#222a3a"/>
      </g>
    </g>
    <g id="Сгруппировать_260" data-name="Сгруппировать 260" transform="translate(21.046 57.716)">
      <g id="Сгруппировать_259" data-name="Сгруппировать 259" transform="translate(0 0)">
        <path id="Контур_68" data-name="Контур 68" d="M285.133,176.52a.563.563,0,0,0-.8,0l-2.007,2.007-.8-.8a.563.563,0,1,0-.8.8l1.2,1.2a.563.563,0,0,0,.8,0l2.405-2.405A.563.563,0,0,0,285.133,176.52Z" transform="translate(-280.565 -176.355)" fill="#222a3a"/>
      </g>
    </g>
  </g>
</svg>
