<svg xmlns="http://www.w3.org/2000/svg" width="39.829" height="21.395" viewBox="0 0 39.829 21.395">
  <g id="dinner" transform="translate(0 -102.395)">
    <path id="Контур_44" data-name="Контур 44" d="M24.906,258.911a.675.675,0,0,0-.522-1.1H.675a.675.675,0,0,0-.522,1.1L3.18,262.6l.632,2.127a.675.675,0,0,0,.647.483H20.6a.675.675,0,0,0,.647-.483l.632-2.127Zm-1.949.247-2.007,2.447H4.108L2.1,259.158ZM20.1,263.864H4.963l-.269-.908H20.366Z" transform="translate(0 -141.424)" fill="#222a3a"/>
    <path id="Контур_45" data-name="Контур 45" d="M257.524,163.467a10.68,10.68,0,0,1,3.767,5.4.675.675,0,1,0,1.293-.389,12.041,12.041,0,0,0-4.245-6.089,11.812,11.812,0,0,0-7.178-2.407.675.675,0,1,0,0,1.35A10.472,10.472,0,0,1,257.524,163.467Z" transform="translate(-227.938 -52.404)" fill="#222a3a"/>
    <path id="Контур_46" data-name="Контур 46" d="M139.739,119h-1.765a14.2,14.2,0,0,0-12.234-13.541,2.142,2.142,0,1,0-3.865,0,14.187,14.187,0,0,0-11.294,8.934.675.675,0,1,0,1.259.487A12.828,12.828,0,0,1,136.624,119H125.662a.675.675,0,0,0,0,1.35h14.077a.675.675,0,0,0,0-1.35Zm-16.723-14.464a.792.792,0,1,1,.792.792A.792.792,0,0,1,123.016,104.537Z" transform="translate(-100.586 0)" fill="#222a3a"/>
  </g>
</svg>
