<svg xmlns="http://www.w3.org/2000/svg" width="36.05" height="34.321" viewBox="0 0 36.05 34.321">
  <g id="key" transform="translate(0 -9.559)">
    <path id="Контур_47" data-name="Контур 47" d="M36,32.671a64.132,64.132,0,0,0-5.149-16.205,3.159,3.159,0,0,0-2.98-1.818,19.319,19.319,0,0,0-6.9,1.53c-.007-.129-.017-.258-.031-.387A7.009,7.009,0,0,0,7.09,15.278l-1.775-.453A2.249,2.249,0,0,0,2.64,16.232L.189,22.9a2.256,2.256,0,0,0,1.559,2.964l2,.51-.187,2.641L2.505,30.865a.678.678,0,0,0-.088.3l-.138,2.8-.8,1.028a.678.678,0,0,0-.14.364L1.1,38.642l-1,1.673a.678.678,0,0,0,.039.754l1.9,2.538a.678.678,0,0,0,.753.239L6.321,42.7a.678.678,0,0,0,.447-.477l3.614-14.152,1.888.482A2.256,2.256,0,0,0,15.06,26.7l.491-3.3a7,7,0,0,0,1.37-.465A64.133,64.133,0,0,0,21.7,37.215a3.162,3.162,0,0,0,2.86,1.82l.12,0a19.3,19.3,0,0,0,9.939-3.158A3.161,3.161,0,0,0,36,32.671ZM7.44,19.125h.013a6.964,6.964,0,0,0,.642,1.252.678.678,0,0,0,1.138-.738c-.021-.032-.04-.064-.06-.1l1.163.3a.724.724,0,0,1-.358,1.4l-2.716-.694a.724.724,0,0,1,.178-1.425ZM2.343,39.2a.679.679,0,0,0,.094-.3l.245-3.244.8-1.036a.678.678,0,0,0,.141-.382l.141-2.848,1.048-1.845a.679.679,0,0,0,.087-.287l.181-2.549.947.242L2.271,41.66l-.777-1.039Zm6.725-11.47L5.546,41.521l-2.007.654,3.8-14.885,1.159.3Zm4.65-1.235a.9.9,0,0,1-1.112.739L2.083,24.547a.9.9,0,0,1-.621-1.181L3.913,16.7a.9.9,0,0,1,1.066-.561l1.993.509c0,.233.016.466.042.7.017.152.041.3.068.455a2.079,2.079,0,0,0-.155,4.063l2.716.694a2.094,2.094,0,0,0,.518.066,2.081,2.081,0,0,0,.511-4.1l-2.167-.553a5.71,5.71,0,0,1-.144-.778c-.007-.065-.012-.131-.017-.2L14.1,18.468a.9.9,0,0,1,.667,1Zm2.051-4.565.336-2.26a2.25,2.25,0,0,0-1.673-2.517L8.407,15.615a5.653,5.653,0,0,1,11.19.327,5.716,5.716,0,0,1,.029.875q-.863.449-1.692.989a3.161,3.161,0,0,0-1.384,3.2c.032.181.067.362.1.543A5.591,5.591,0,0,1,15.769,21.931ZM33.876,34.739a17.957,17.957,0,0,1-9.249,2.939,1.808,1.808,0,0,1-1.7-1.041A62.774,62.774,0,0,1,18.157,22.2,7.024,7.024,0,0,0,20.089,20a.678.678,0,0,0-1.182-.666,5.7,5.7,0,0,1-1.036,1.331,1.8,1.8,0,0,1,.8-1.727A17.957,17.957,0,0,1,27.924,16h.068a1.807,1.807,0,0,1,1.634,1.042,62.779,62.779,0,0,1,5.04,15.862A1.806,1.806,0,0,1,33.876,34.739Z" transform="translate(0)" fill="#222a3a"/>
    <path id="Контур_48" data-name="Контур 48" d="M264.567,226.711a1.393,1.393,0,0,0-1.747-.9l-6.589,2.094a1.393,1.393,0,0,0-.9,1.747l.628,1.977a1.391,1.391,0,0,0,1.747.9l6.589-2.093h0a1.393,1.393,0,0,0,.9-1.747Zm-7.276,4.524a.035.035,0,0,1-.043-.022l-.628-1.977a.034.034,0,0,1,.022-.043l2.648-.841.649,2.042Zm6.589-2.094h0l-2.648.841-.649-2.042,2.648-.841.01,0a.035.035,0,0,1,.033.024l.628,1.977A.034.034,0,0,1,263.88,229.141Z" transform="translate(-232.176 -196.631)" fill="#222a3a"/>
    <path id="Контур_49" data-name="Контур 49" d="M226.2,125.619l7.068-2.246a.678.678,0,1,0-.411-1.293l-7.068,2.246a.678.678,0,1,0,.411,1.293Z" transform="translate(-204.935 -102.316)" fill="#222a3a"/>
    <path id="Контур_50" data-name="Контур 50" d="M240.973,145.4a.678.678,0,0,0-.852-.441l-7.068,2.246a.678.678,0,1,0,.411,1.293l7.068-2.246A.678.678,0,0,0,240.973,145.4Z" transform="translate(-211.546 -123.121)" fill="#222a3a"/>
  </g>
</svg>
