<svg xmlns="http://www.w3.org/2000/svg" width="28.501" height="35.095" viewBox="0 0 28.501 35.095">
  <g id="presentation_1_" data-name="presentation (1)" transform="translate(-48.097)">
    <g id="Сгруппировать_274" data-name="Сгруппировать 274" transform="translate(48.097 17.034)">
      <g id="Сгруппировать_273" data-name="Сгруппировать 273">
        <path id="Контур_75" data-name="Контур 75" d="M75.239,260.762l-1.388-.555v-.475a2.714,2.714,0,0,0,1.1-2.169v-1.4A2.163,2.163,0,0,0,72.788,254H72.78l-1.1,0a2.165,2.165,0,0,0-1.855,1.068l-.92-.368v-.475a2.714,2.714,0,0,0,1.1-2.169v-1.4a2.162,2.162,0,0,0-2.162-2.162h-.008l-1.1,0a2.166,2.166,0,0,0-2.155,2.162v1.394a2.714,2.714,0,0,0,1.1,2.169v.475l-.916.366a2.173,2.173,0,0,0-.34-.439A2.148,2.148,0,0,0,62.9,254H62.89l-1.1,0a2.165,2.165,0,0,0-1.855,1.068l-.92-.368v-.475a2.714,2.714,0,0,0,1.1-2.169v-1.4a2.162,2.162,0,0,0-2.162-2.162h-.008l-1.1,0a2.167,2.167,0,0,0-2.155,2.162v1.394a2.714,2.714,0,0,0,1.1,2.169v.475l-.916.366a2.174,2.174,0,0,0-.34-.439A2.148,2.148,0,0,0,53.007,254H53l-1.1,0a2.167,2.167,0,0,0-2.155,2.162v1.394a2.714,2.714,0,0,0,1.1,2.169v.475l-1.388.555A2.152,2.152,0,0,0,48.1,262.77v3.28a.514.514,0,0,0,1.028,0v-3.28a1.129,1.129,0,0,1,.713-1.053l1.619-.648h2l1.619.648a1.129,1.129,0,0,1,.713,1.053v3.28a.514.514,0,0,0,1.028,0v-3.28a2.152,2.152,0,0,0-1.359-2.008l-1.388-.555v-.475a2.715,2.715,0,0,0,1.1-2.169v-1.4c0-.034,0-.068,0-.1l1.236-.494h2l1.236.494c0,.035,0,.071,0,.106v1.394a2.714,2.714,0,0,0,1.1,2.169v.475l-1.388.555a2.152,2.152,0,0,0-1.359,2.008v3.28a.514.514,0,0,0,1.028,0v-3.28a1.129,1.129,0,0,1,.713-1.053l1.619-.648h2l1.619.648a1.129,1.129,0,0,1,.713,1.053v3.28a.514.514,0,0,0,1.028,0v-3.28a2.152,2.152,0,0,0-1.359-2.008l-1.388-.555v-.475a2.714,2.714,0,0,0,1.1-2.169v-1.4c0-.034,0-.068,0-.1l1.236-.494h2l1.236.494c0,.035,0,.071,0,.106v1.394a2.714,2.714,0,0,0,1.1,2.169v.475l-1.388.555a2.152,2.152,0,0,0-1.359,2.008v3.28a.514.514,0,0,0,1.028,0v-3.28a1.129,1.129,0,0,1,.713-1.053l1.619-.648h2l1.619.648a1.129,1.129,0,0,1,.713,1.053v3.28a.514.514,0,0,0,1.028,0v-3.28A2.151,2.151,0,0,0,75.239,260.762Zm-21.1-3.2a1.665,1.665,0,0,1-.843,1.449.514.514,0,0,0-.256.444v.585h-1.17v-.585a.514.514,0,0,0-.256-.444,1.665,1.665,0,0,1-.843-1.449v-1.394a1.136,1.136,0,0,1,1.13-1.134l1.1,0a1.134,1.134,0,0,1,1.138,1.134Zm4.1-4.052a.514.514,0,0,0-.256.444v.585h-1.17v-.585a.514.514,0,0,0-.256-.444,1.665,1.665,0,0,1-.843-1.449v-1.394a1.136,1.136,0,0,1,1.13-1.134l1.1,0h0a1.134,1.134,0,0,1,1.134,1.134v1.4A1.665,1.665,0,0,1,58.243,253.511Zm4.945,5.5a.514.514,0,0,0-.256.444v.585h-1.17v-.585a.514.514,0,0,0-.256-.444,1.665,1.665,0,0,1-.843-1.449v-1.394a1.136,1.136,0,0,1,1.13-1.134l1.1,0h0a1.134,1.134,0,0,1,1.134,1.134v1.4h0A1.665,1.665,0,0,1,63.188,259.011Zm4.945-5.5a.514.514,0,0,0-.256.444v.585h-1.17v-.585a.514.514,0,0,0-.256-.444,1.665,1.665,0,0,1-.843-1.449v-1.394a1.136,1.136,0,0,1,1.13-1.134l1.1,0h0a1.134,1.134,0,0,1,1.134,1.134v1.4A1.665,1.665,0,0,1,68.134,253.511Zm4.945,5.5a.514.514,0,0,0-.256.444v.585h-1.17v-.585a.514.514,0,0,0-.256-.444,1.665,1.665,0,0,1-.843-1.449v-1.394a1.136,1.136,0,0,1,1.13-1.134l1.1,0a1.134,1.134,0,0,1,1.138,1.134v1.4A1.665,1.665,0,0,1,73.079,259.011Z" transform="translate(-48.097 -248.502)" fill="#222a3a"/>
      </g>
    </g>
    <g id="Сгруппировать_276" data-name="Сгруппировать 276" transform="translate(56.339)">
      <g id="Сгруппировать_275" data-name="Сгруппировать 275" transform="translate(0)">
        <path id="Контур_76" data-name="Контур 76" d="M180.285,9.585a.514.514,0,0,0-.437-.244h-1.684v-1a1.6,1.6,0,0,0-.892-1.443l-1.287-.643a.035.035,0,0,1-.02-.032V5.459c0-.006,0-.012,0-.019a2.71,2.71,0,0,0,1.1-2.179v-1.1A2.165,2.165,0,0,0,174.9,0h-1.1a2.165,2.165,0,0,0-2.162,2.162v1.1a2.71,2.71,0,0,0,1.1,2.179c0,.006,0,.012,0,.019v.759a.035.035,0,0,1-.02.032l-1.287.643a1.6,1.6,0,0,0-.892,1.443v1h-1.684a.514.514,0,0,0-.46.744l1.1,2.2a.514.514,0,0,0,.46.284h.585V15.9a.514.514,0,1,0,1.028,0V12.567h5.565V15.9a.514.514,0,0,0,1.028,0V12.567h.585a.514.514,0,0,0,.46-.284l1.1-2.2A.514.514,0,0,0,180.285,9.585ZM172.67,3.261v-1.1A1.136,1.136,0,0,1,173.8,1.028h1.1a1.136,1.136,0,0,1,1.134,1.134v1.1a1.684,1.684,0,1,1-3.367,0Zm2.411,3.491-.7.7a.035.035,0,0,1-.05,0l-.7-.7a1.062,1.062,0,0,0,.143-.533V5.909a2.694,2.694,0,0,0,1.17,0v.309A1.062,1.062,0,0,0,175.081,6.752Zm-3.51,1.584h0a.582.582,0,0,1,.323-.523l.893-.446.815.815a1.065,1.065,0,0,0,1.5,0l.815-.815.893.446a.582.582,0,0,1,.323.523v1h-5.565Zm6.861,3.2h-8.156l-.585-1.17h9.326Z" transform="translate(-168.345)" fill="#222a3a"/>
      </g>
    </g>
    <g id="Сгруппировать_278" data-name="Сгруппировать 278" transform="translate(60.735 13.737)">
      <g id="Сгруппировать_277" data-name="Сгруппировать 277" transform="translate(0)">
        <path id="Контур_77" data-name="Контур 77" d="M235.185,200.4h-2.2a.514.514,0,1,0,0,1.028h2.2a.514.514,0,1,0,0-1.028Z" transform="translate(-232.473 -200.403)" fill="#222a3a"/>
      </g>
    </g>
  </g>
</svg>
