<svg xmlns="http://www.w3.org/2000/svg" width="36.309" height="28.35" viewBox="0 0 36.309 28.35">
  <g id="presentation" transform="translate(0 -56.112)">
    <g id="Сгруппировать_262" data-name="Сгруппировать 262" transform="translate(0 56.112)">
      <g id="Сгруппировать_261" data-name="Сгруппировать 261">
        <path id="Контур_69" data-name="Контур 69" d="M34.64,56.112H1.669A1.671,1.671,0,0,0,0,57.781V77.109a1.671,1.671,0,0,0,1.669,1.669H2.805a.532.532,0,1,0,0-1.064H1.669a.606.606,0,0,1-.605-.605V57.781a.606.606,0,0,1,.605-.605H34.64a.606.606,0,0,1,.605.605V77.109a.606.606,0,0,1-.605.605H33.5a.532.532,0,1,0,0,1.064H34.64a1.671,1.671,0,0,0,1.669-1.669V57.781A1.671,1.671,0,0,0,34.64,56.112Z" transform="translate(0 -56.112)" fill="#222a3a"/>
      </g>
    </g>
    <g id="Сгруппировать_264" data-name="Сгруппировать 264" transform="translate(13.643 71.467)">
      <g id="Сгруппировать_263" data-name="Сгруппировать 263">
        <path id="Контур_70" data-name="Контур 70" d="M200,279.627l-1.436-.574v-.492a2.808,2.808,0,0,0,1.137-2.244v-1.446a2.237,2.237,0,0,0-2.237-2.237h-.008l-1.137,0a2.241,2.241,0,0,0-2.229,2.237v1.442a2.808,2.808,0,0,0,1.137,2.244v.492l-1.436.574a2.227,2.227,0,0,0-1.406,2.077V285.1a.532.532,0,0,0,1.064,0v-1.705a1.175,1.175,0,0,1,1.174-1.173h4.548a1.175,1.175,0,0,1,1.173,1.173V285.1a.532.532,0,0,0,1.064,0V281.7A2.226,2.226,0,0,0,200,279.627Zm-4.847-3.31v-1.442a1.176,1.176,0,0,1,1.169-1.174l1.137,0h0a1.174,1.174,0,0,1,1.173,1.174v1.446a1.723,1.723,0,0,1-.873,1.5.532.532,0,0,0-.264.46v.605h-1.21v-.605a.532.532,0,0,0-.264-.46A1.723,1.723,0,0,1,195.155,276.317Zm4.016,4.837h-4.548a2.224,2.224,0,0,0-1.15.319,1.166,1.166,0,0,1,.714-.859l1.675-.67h2.069l1.675.67a1.167,1.167,0,0,1,.714.859A2.224,2.224,0,0,0,199.171,281.155Z" transform="translate(-192.386 -272.634)" fill="#222a3a"/>
      </g>
    </g>
    <g id="Сгруппировать_266" data-name="Сгруппировать 266" transform="translate(23.876 71.467)">
      <g id="Сгруппировать_265" data-name="Сгруппировать 265">
        <path id="Контур_71" data-name="Контур 71" d="M344.293,279.627l-1.436-.574v-.492a2.808,2.808,0,0,0,1.137-2.244v-1.446a2.237,2.237,0,0,0-2.237-2.237h-.008l-1.137,0a2.241,2.241,0,0,0-2.229,2.237v1.442a2.808,2.808,0,0,0,1.137,2.244v.492l-1.436.574a2.227,2.227,0,0,0-1.406,2.077V285.1a.532.532,0,0,0,1.064,0v-1.705a1.175,1.175,0,0,1,1.174-1.173h4.548a1.175,1.175,0,0,1,1.174,1.173V285.1a.532.532,0,1,0,1.064,0V281.7A2.226,2.226,0,0,0,344.293,279.627Zm-4.847-3.31v-1.442a1.176,1.176,0,0,1,1.169-1.174l1.137,0h0a1.174,1.174,0,0,1,1.173,1.174v1.446a1.723,1.723,0,0,1-.873,1.5.532.532,0,0,0-.264.46v.605h-1.21v-.605a.532.532,0,0,0-.264-.46A1.723,1.723,0,0,1,339.446,276.317Zm4.016,4.837h-4.548a2.224,2.224,0,0,0-1.15.319,1.167,1.167,0,0,1,.715-.859l1.675-.67h2.069l1.675.67a1.167,1.167,0,0,1,.714.859A2.224,2.224,0,0,0,343.462,281.155Z" transform="translate(-336.677 -272.634)" fill="#222a3a"/>
      </g>
    </g>
    <g id="Сгруппировать_268" data-name="Сгруппировать 268" transform="translate(3.411 71.467)">
      <g id="Сгруппировать_267" data-name="Сгруппировать 267">
        <path id="Контур_72" data-name="Контур 72" d="M55.712,279.628l-1.436-.574v-.492a2.808,2.808,0,0,0,1.137-2.244v-1.446a2.237,2.237,0,0,0-2.245-2.237l-1.137,0a2.241,2.241,0,0,0-2.229,2.237v1.442a2.808,2.808,0,0,0,1.137,2.244v.492l-1.436.574a2.227,2.227,0,0,0-1.406,2.077V285.1a.532.532,0,0,0,1.064,0v-1.705a1.175,1.175,0,0,1,1.174-1.173h4.548a1.175,1.175,0,0,1,1.174,1.173V285.1a.532.532,0,0,0,1.064,0v-3.393A2.226,2.226,0,0,0,55.712,279.628Zm-4.847-3.31v-1.442a1.176,1.176,0,0,1,1.169-1.173l1.137,0h0a1.174,1.174,0,0,1,1.173,1.174v1.446a1.723,1.723,0,0,1-.873,1.5.532.532,0,0,0-.264.46v.605H52v-.605a.532.532,0,0,0-.264-.46A1.723,1.723,0,0,1,50.865,276.318Zm4.016,4.837H50.333a2.224,2.224,0,0,0-1.15.319,1.166,1.166,0,0,1,.715-.859l1.675-.67h2.069l1.675.67a1.167,1.167,0,0,1,.714.859A2.225,2.225,0,0,0,54.881,281.156Z" transform="translate(-48.096 -272.635)" fill="#222a3a"/>
      </g>
    </g>
    <g id="Сгруппировать_270" data-name="Сгруппировать 270" transform="translate(10.232 59.523)">
      <g id="Сгруппировать_269" data-name="Сгруппировать 269">
        <path id="Контур_73" data-name="Контур 73" d="M152.213,104.208a7.922,7.922,0,0,0-4.874,14.167.532.532,0,1,0,.655-.838,6.858,6.858,0,1,1,8.439,0,.532.532,0,1,0,.655.838,7.922,7.922,0,0,0-4.875-14.166Z" transform="translate(-144.291 -104.208)" fill="#222a3a"/>
      </g>
    </g>
    <g id="Сгруппировать_272" data-name="Сгруппировать 272" transform="translate(15.349 63.791)">
      <g id="Сгруппировать_271" data-name="Сгруппировать 271">
        <path id="Контур_74" data-name="Контур 74" d="M222.737,167.288l-5.013-2.785a.867.867,0,0,0-1.289.758v5.571a.866.866,0,0,0,1.289.758l5.013-2.785a.867.867,0,0,0,0-1.516ZM217.5,170.5v-4.9l4.413,2.452Z" transform="translate(-216.435 -164.392)" fill="#222a3a"/>
      </g>
    </g>
  </g>
</svg>
